<?xml version="1.0" encoding="UTF-8" standalone="no"?>
<!-- Created with Inkscape (http://www.inkscape.org/) -->

<svg
   width="7.5359998mm"
   height="7.5359998mm"
   viewBox="0 0 7.5359997 7.5359998"
   version="1.1"
   id="svg1"
   inkscape:version="1.3 (0e150ed6c4, 2023-07-21)"
   sodipodi:docname="logo.svg"
   xmlns:inkscape="http://www.inkscape.org/namespaces/inkscape"
   xmlns:sodipodi="http://sodipodi.sourceforge.net/DTD/sodipodi-0.dtd"
   xmlns="http://www.w3.org/2000/svg"
   xmlns:svg="http://www.w3.org/2000/svg">
  <sodipodi:namedview
     id="namedview1"
     pagecolor="#ffffff"
     bordercolor="#000000"
     borderopacity="0.25"
     inkscape:showpageshadow="2"
     inkscape:pageopacity="0.0"
     inkscape:pagecheckerboard="0"
     inkscape:deskcolor="#d1d1d1"
     inkscape:document-units="mm"
     inkscape:zoom="17.660269"
     inkscape:cx="30.548798"
     inkscape:cy="23.923757"
     inkscape:window-width="3374"
     inkscape:window-height="1417"
     inkscape:window-x="-8"
     inkscape:window-y="-8"
     inkscape:window-maximized="1"
     inkscape:current-layer="layer1" />
  <defs
     id="defs1" />
  <g
     inkscape:label="Layer 1"
     inkscape:groupmode="layer"
     id="layer1"
     transform="translate(-8.8496509,-6.467195)">
    <g
       id="g6"
       transform="matrix(0.95102601,0,0,0.95088325,0.61792633,0.72341702)"
       style="stroke-width:1.05157">
      <path
         d="m 10.105174,9.7970596 q -0.3048001,0 -0.5630331,-0.1100665 -0.258233,-0.1142999 -0.444499,-0.3005664 l 0.211666,-0.2455332 q 0.156633,0.1566332 0.364067,0.2539998 0.211666,0.093133 0.4487331,0.093133 0.287866,0 0.444499,-0.1227666 0.160867,-0.1227666 0.160867,-0.3174997 0,-0.1481666 -0.06773,-0.2370665 -0.0635,-0.0889 -0.177799,-0.1481665 -0.110067,-0.059267 -0.254,-0.1185333 L 9.8300079,8.3704275 q -0.1397,-0.055033 -0.2794,-0.1439332 -0.135467,-0.0889 -0.2286,-0.2285998 -0.09313,-0.1396999 -0.09313,-0.3428997 0,-0.2116665 0.1143,-0.3767664 0.118533,-0.1693332 0.321733,-0.2624664 0.207433,-0.097367 0.4741331,-0.097367 0.262466,0 0.4826,0.097367 0.220133,0.093133 0.372533,0.2455331 l -0.18627,0.2285998 Q 10.67244,7.3671284 10.507341,7.2993951 q -0.1651,-0.071967 -0.381,-0.071967 -0.2413001,0 -0.3894661,0.1100665 -0.148167,0.1100666 -0.148167,0.2963331 0,0.1312333 0.07197,0.2158999 0.0762,0.084666 0.1905,0.1396998 0.1143,0.055033 0.2328331,0.1058333 l 0.389466,0.1693332 q 0.173567,0.067733 0.309033,0.1650998 0.1397,0.093133 0.220133,0.2328332 0.08467,0.1354665 0.08467,0.3428997 0,0.2201331 -0.118533,0.4021663 Q 10.850246,9.5853928 10.630113,9.691226 10.40998,9.7970592 10.10518,9.7970592 Z m 2.586566,-0.0508 V 7.9724945 H 11.735008 V 7.6888614 h 1.303865 v 2.0573983 z m 0.135467,-2.4891979 q -0.118533,0 -0.198967,-0.071967 -0.08043,-0.0762 -0.08043,-0.1989665 0,-0.1227666 0.08043,-0.1947332 0.08043,-0.0762 0.198967,-0.0762 0.118533,0 0.198966,0.0762 0.08043,0.071967 0.08043,0.1947332 0,0.1227665 -0.08043,0.1989665 -0.08043,0.071967 -0.198966,0.071967 z m 1.5494,2.4891979 V 6.9691954 h 1.718732 v 0.296333 h -1.363132 v 0.872066 h 1.151466 v 0.3005664 h -1.151466 v 1.0075325 h 1.405465 v 0.3005664 z"
         id="path6-1"
         style="font-size:4.23333px;font-family:'Source Code Pro';-inkscape-font-specification:'Source Code Pro';fill:#000000;stroke:#000000;stroke-width:0.521581;stroke-linecap:round;stroke-linejoin:round;stroke-dasharray:none" />
      <path
         d="m 10.105174,9.7970596 q -0.3047995,0 -0.5630326,-0.1100665 Q 9.2839083,9.5726932 9.0976418,9.3864267 L 9.3093083,9.1408935 q 0.1566332,0.1566332 0.3640664,0.2539998 0.2116664,0.093133 0.4487333,0.093133 0.287866,0 0.444499,-0.1227666 0.160867,-0.1227666 0.160867,-0.3174997 0,-0.1481666 -0.06773,-0.2370665 -0.0635,-0.0889 -0.177799,-0.1481665 -0.110067,-0.059267 -0.254,-0.1185333 L 9.8300079,8.3704275 Q 9.690308,8.3153942 9.5506081,8.2264943 9.4151415,8.1375944 9.3220083,7.9978945 9.228875,7.8581946 9.228875,7.6549948 q 0,-0.2116665 0.1142999,-0.3767664 Q 9.4617082,7.1088952 9.664908,7.015762 9.8723412,6.918395 10.139041,6.918395 q 0.262466,0 0.4826,0.097367 0.220133,0.093133 0.372533,0.2455331 L 10.807907,7.4898949 Q 10.67244,7.3671284 10.507341,7.2993951 q -0.1651,-0.071967 -0.381,-0.071967 -0.2412999,0 -0.3894664,0.1100665 -0.1481665,0.1100666 -0.1481665,0.2963331 0,0.1312333 0.071967,0.2158999 0.0762,0.084666 0.1904998,0.1396998 0.1142999,0.055033 0.2328331,0.1058333 l 0.389466,0.1693332 q 0.173567,0.067733 0.309033,0.1650998 0.1397,0.093133 0.220133,0.2328332 0.08467,0.1354665 0.08467,0.3428997 0,0.2201331 -0.118533,0.4021663 -0.118534,0.1777999 -0.338667,0.2836331 -0.220133,0.1058332 -0.524933,0.1058332 z m 2.586566,-0.0508 V 7.9724945 H 11.735008 V 7.6888614 h 1.303865 v 2.0573983 z m 0.135467,-2.4891979 q -0.118533,0 -0.198967,-0.071967 -0.08043,-0.0762 -0.08043,-0.1989665 0,-0.1227666 0.08043,-0.1947332 0.08043,-0.0762 0.198967,-0.0762 0.118533,0 0.198966,0.0762 0.08043,0.071967 0.08043,0.1947332 0,0.1227665 -0.08043,0.1989665 -0.08043,0.071967 -0.198966,0.071967 z m 1.5494,2.4891979 V 6.9691954 h 1.718732 v 0.296333 h -1.363132 v 0.872066 h 1.151466 v 0.3005664 h -1.151466 v 1.0075325 h 1.405465 v 0.3005664 z"
         id="path6"
         style="font-size:4.23333px;font-family:'Source Code Pro';-inkscape-font-specification:'Source Code Pro';fill:#4e9a06;stroke:#000000;stroke-width:0.100951;stroke-linecap:round;stroke-linejoin:round;stroke-dasharray:none" />
      <path
         d="m 9.8554078,12.6317 q -0.1904998,0 -0.3513663,-0.06773 -0.1566332,-0.07197 -0.2539998,-0.2032 -0.093133,-0.131233 -0.093133,-0.313267 0,-0.232833 0.1481666,-0.385233 0.1523998,-0.156633 0.4825996,-0.249766 0.3301991,-0.09313 0.8593661,-0.135467 -0.0042,-0.1397 -0.05927,-0.253999 -0.0508,-0.118534 -0.169333,-0.1905 -0.118534,-0.07197 -0.3175,-0.07197 -0.1989662,0 -0.3894661,0.08043 -0.1862665,0.0762 -0.3301997,0.1651 L 9.2458083,10.769035 q 0.1566333,-0.1016 0.397933,-0.198967 0.2455332,-0.09737 0.5164667,-0.09737 0.423333,0 0.626532,0.232833 0.207434,0.2286 0.207434,0.613833 v 1.261532 H 10.71054 l -0.02963,-0.2794 h -0.0127 q -0.169333,0.131233 -0.381,0.232833 -0.211666,0.09737 -0.4317992,0.09737 z m 0.093133,-0.2794 q 0.1735672,0 0.3471332,-0.08043 0.1778,-0.08043 0.351367,-0.224367 v -0.541866 q -0.440267,0.03387 -0.6942669,0.105833 -0.2497664,0.06773 -0.3555997,0.173567 -0.1015999,0.1016 -0.1015999,0.237066 0,0.173567 0.1354666,0.254 0.1396998,0.0762 0.3174997,0.0762 z m 1.7991672,1.096433 v -2.925231 h 0.287866 l 0.02963,0.262466 h 0.0127 q 0.143933,-0.135466 0.330199,-0.224366 0.1905,-0.0889 0.381,-0.0889 0.414866,0 0.630766,0.287866 0.220133,0.283633 0.220133,0.761999 0,0.347134 -0.131233,0.5969 -0.131233,0.249766 -0.3429,0.381 -0.211666,0.131233 -0.461433,0.131233 -0.143933,0 -0.313266,-0.06773 -0.1651,-0.07197 -0.300566,-0.198967 h -0.0127 l 0.01693,0.389466 v 0.694267 z M 12.645174,12.3396 q 0.275166,0 0.452966,-0.2159 0.182033,-0.220133 0.182033,-0.601133 0,-0.338666 -0.135466,-0.546099 -0.135467,-0.211667 -0.4445,-0.211667 -0.135466,0 -0.2921,0.0762 -0.1524,0.07197 -0.313266,0.232834 V 12.0983 q 0.148166,0.131234 0.296333,0.186267 0.148167,0.05503 0.254,0.05503 z m 1.642533,1.109133 v -2.925231 h 0.287867 l 0.02963,0.262466 h 0.0127 q 0.143933,-0.135466 0.3302,-0.224366 0.1905,-0.0889 0.380999,-0.0889 0.414867,0 0.630767,0.287866 0.220133,0.283633 0.220133,0.761999 0,0.347134 -0.131233,0.5969 -0.131234,0.249766 -0.3429,0.381 -0.211667,0.131233 -0.461433,0.131233 -0.143933,0 -0.313267,-0.06773 -0.165099,-0.07197 -0.300566,-0.198967 h -0.0127 l 0.01693,0.389466 v 0.694267 z M 15.185173,12.3396 q 0.275167,0 0.452967,-0.2159 0.182033,-0.220133 0.182033,-0.601133 0,-0.338666 -0.135467,-0.546099 -0.135466,-0.211667 -0.444499,-0.211667 -0.135467,0 -0.2921,0.0762 -0.1524,0.07197 -0.313267,0.232834 V 12.0983 q 0.148167,0.131234 0.296333,0.186267 0.148167,0.05503 0.254,0.05503 z"
         id="path5"
         style="font-size:4.23333px;font-family:'Source Code Pro';-inkscape-font-specification:'Source Code Pro';stroke:#000000;stroke-width:0.206109;stroke-linecap:round;stroke-linejoin:round;stroke-dasharray:none" />
    </g>
  </g>
</svg>
