<?xml version="1.0" encoding="UTF-8" standalone="no"?>
<!-- Created with Inkscape (http://www.inkscape.org/) -->

<svg
   width="34.241371mm"
   height="32.408054mm"
   viewBox="0 0 34.241371 32.408054"
   version="1.1"
   id="svg1"
   xmlns="http://www.w3.org/2000/svg"
   xmlns:svg="http://www.w3.org/2000/svg">
  <defs
     id="defs1" />
  <g
     id="layer1"
     transform="translate(-9.0824285,-6.8614373)">
    <g
       id="g6"
       transform="matrix(4.5667057,0,0,4.5660202,-31.563036,-22.612561)"
       style="stroke-width:0.218992">
      <g
         id="path6-1"
         style="stroke-width:0.218992">
        <path
           style="color:#000000;-inkscape-font-specification:'Source Code Pro';fill:#000000;stroke-width:0.218992;stroke-linecap:round;stroke-linejoin:round;-inkscape-stroke:none"
           d="m 10.105174,9.7970596 q -0.3048001,0 -0.5630331,-0.1100665 -0.258233,-0.1142999 -0.444499,-0.3005664 l 0.211666,-0.2455332 q 0.156633,0.1566332 0.364067,0.2539998 0.211666,0.093133 0.4487331,0.093133 0.287866,0 0.444499,-0.1227666 0.160867,-0.1227666 0.160867,-0.3174997 0,-0.1481666 -0.06773,-0.2370665 -0.0635,-0.0889 -0.177799,-0.1481665 -0.110067,-0.059267 -0.254,-0.1185333 L 9.8300079,8.3704275 q -0.1397,-0.055033 -0.2794,-0.1439332 -0.135467,-0.0889 -0.2286,-0.2285998 -0.09313,-0.1396999 -0.09313,-0.3428997 0,-0.2116665 0.1143,-0.3767664 0.118533,-0.1693332 0.321733,-0.2624664 0.207433,-0.097367 0.4741331,-0.097367 0.262466,0 0.4826,0.097367 0.220133,0.093133 0.372533,0.2455331 l -0.18627,0.2285998 Q 10.67244,7.3671284 10.507341,7.2993951 q -0.1651,-0.071967 -0.381,-0.071967 -0.2413001,0 -0.3894661,0.1100665 -0.148167,0.1100666 -0.148167,0.2963331 0,0.1312333 0.07197,0.2158999 0.0762,0.084666 0.1905,0.1396998 0.1143,0.055033 0.2328331,0.1058333 l 0.389466,0.1693332 q 0.173567,0.067733 0.309033,0.1650998 0.1397,0.093133 0.220133,0.2328332 0.08467,0.1354665 0.08467,0.3428997 0,0.2201331 -0.118533,0.4021663 Q 10.850246,9.5853928 10.630113,9.691226 10.40998,9.7970592 10.10518,9.7970592 Z m 2.586566,-0.0508 V 7.9724945 H 11.735008 V 7.6888614 h 1.303865 v 2.0573983 z m 0.135467,-2.4891979 q -0.118533,0 -0.198967,-0.071967 -0.08043,-0.0762 -0.08043,-0.1989665 0,-0.1227666 0.08043,-0.1947332 0.08043,-0.0762 0.198967,-0.0762 0.118533,0 0.198966,0.0762 0.08043,0.071967 0.08043,0.1947332 0,0.1227665 -0.08043,0.1989665 -0.08043,0.071967 -0.198966,0.071967 z m 1.5494,2.4891979 V 6.9691954 h 1.718732 v 0.296333 h -1.363132 v 0.872066 h 1.151466 v 0.3005664 h -1.151466 v 1.0075325 h 1.405465 v 0.3005664 z"
           id="path7" />
        <path
           style="color:#000000;-inkscape-font-specification:'Source Code Pro';fill:#000000;stroke-width:0.218992;stroke-linecap:round;stroke-linejoin:round;-inkscape-stroke:none"
           d="m 12.828125,6.4550781 c -0.132858,0 -0.273228,0.052435 -0.373047,0.1445313 -0.107657,0.097175 -0.167969,0.2485103 -0.167969,0.3867187 0,0.1387962 0.05773,0.2897805 0.16211,0.3886719 a 0.26081658,0.26081658 0 0 0 0.0059,0.00391 c 0.03547,0.031734 0.08784,0.027788 0.13086,0.048828 H 11.734416 A 0.26081658,0.26081658 0 0 0 11.47465,7.6894567 v 0.2832031 a 0.26081658,0.26081658 0 0 0 0.259766,0.2597657 h 0.697266 v 1.5136719 a 0.26081658,0.26081658 0 0 0 0.259765,0.2617196 h 0.347657 A 0.26081658,0.26081658 0 0 0 13.298828,9.7460938 V 7.6894531 A 0.26081658,0.26081658 0 0 0 13.046875,7.4355469 c 0.05132,-0.022428 0.11088,-0.01954 0.152344,-0.056641 a 0.26081658,0.26081658 0 0 0 0.0059,-0.00391 c 0.104381,-0.098891 0.16211,-0.2498757 0.16211,-0.3886719 0,-0.1382084 -0.06031,-0.2895434 -0.167969,-0.3867187 C 13.09944,6.5075243 12.961014,6.455074 12.828166,6.455074 Z m -2.689453,0.203125 c -0.2095365,0 -0.4067794,0.037915 -0.5839845,0.1210938 C 9.3828649,6.8583288 9.2349048,6.9774794 9.1289063,7.1289062 9.0230174,7.2818567 8.96875,7.4662437 8.96875,7.6542969 c 0,0.1753079 0.042262,0.3465909 0.1367188,0.4882812 0.080298,0.1204469 0.1829551,0.2241295 0.3027343,0.3027344 a 0.26081658,0.26081658 0 0 0 0.00195,0.00195 C 9.5134077,8.5129712 9.6191976,8.566456 9.7265625,8.609375 h 0.00195 c 0.00211,8.423e-4 0.00374,0.00307 0.00586,0.00391 l 0.3886725,0.1699218 a 0.26081658,0.26081658 0 0 0 0.0059,0.00195 c 0.0893,0.036769 0.164969,0.073204 0.228516,0.1074218 a 0.26081658,0.26081658 0 0 0 0.0039,0.00195 c 0.04641,0.024067 0.07069,0.04701 0.08594,0.068359 a 0.26081658,0.26081658 0 0 0 0.0059,0.00586 c 0.0028,0.00371 0.01367,0.019085 0.01367,0.078125 0,0.05801 -0.0042,0.069828 -0.05859,0.1113281 a 0.26081658,0.26081658 0 0 0 -0.002,0.00195 c -0.04337,0.033994 -0.128366,0.066406 -0.283203,0.066406 -0.121729,0 -0.2314084,-0.022389 -0.3378912,-0.068359 L 9.7832031,9.15625 C 9.6718773,9.1036593 9.576329,9.0392197 9.4941406,8.9570313 A 0.26081658,0.26081658 0 0 0 9.1113281,8.9707031 L 8.9003906,9.2167969 a 0.26081658,0.26081658 0 0 0 0.013672,0.3535156 C 9.0619891,9.7182395 9.2386214,9.837753 9.4375,9.9257813 a 0.26081658,0.26081658 0 0 0 0.00195,0.00195 c 0.2062016,0.08789 0.4314244,0.1308597 0.666016,0.1308597 0.233384,0 0.447599,-0.04189 0.636719,-0.1328128 0.18168,-0.087346 0.336252,-0.2123878 0.443359,-0.3730469 a 0.26081658,0.26081658 0 0 0 0.002,-0.00195 C 11.292797,9.3891428 11.3477,9.1994231 11.3477,9.0058594 11.3477,8.8348983 11.31168,8.6708113 11.226607,8.53125 11.153887,8.4059007 11.052792,8.2985465 10.931641,8.2167969 10.825386,8.1408933 10.706572,8.076348 10.578125,8.0253906 l -0.0098,-0.00391 L 10.1875,7.8554687 C 10.111922,7.8230778 10.037555,7.7889153 9.9648438,7.7539062 9.9169217,7.7308325 9.8852496,7.7057532 9.859375,7.6777344 c -0.0045,-0.00493 -0.00977,-0.00633 -0.00977,-0.042969 0,-0.055028 7.217e-4,-0.056507 0.042969,-0.087891 0.044375,-0.032965 0.113161,-0.058594 0.234375,-0.058594 0.114956,0 0.203495,0.019442 0.275391,0.050781 a 0.26081658,0.26081658 0 0 0 0.0059,0.00195 c 0.08205,0.033662 0.155677,0.080109 0.22461,0.1425781 a 0.26081658,0.26081658 0 0 0 0.376953,-0.029297 l 0.1875,-0.2285157 A 0.26081658,0.26081658 0 0 0 11.177734,7.0761719 C 11.051534,6.949971 10.898747,6.8507476 10.726563,6.7773437 10.544741,6.6969227 10.345897,6.6582031 10.138672,6.6582031 Z m 4.238281,0.050781 A 0.26081658,0.26081658 0 0 0 14.115234,6.96875 v 2.7773438 a 0.26081658,0.26081658 0 0 0 0.261719,0.2617192 h 1.759766 A 0.26081658,0.26081658 0 0 0 16.398437,9.7460938 V 9.4453125 A 0.26081658,0.26081658 0 0 0 16.136719,9.1855469 H 14.992188 V 8.6992188 h 0.890625 A 0.26081658,0.26081658 0 0 0 16.144531,8.4375 V 8.1367188 A 0.26081658,0.26081658 0 0 0 15.882813,7.8769531 H 14.992188 V 7.5253906 h 1.103515 A 0.26081658,0.26081658 0 0 0 16.355469,7.265625 V 6.96875 A 0.26081658,0.26081658 0 0 0 16.095703,6.7089844 Z m -1.548828,0.2675781 c 0.02314,0 0.01234,-0.00291 0.01953,0.00391 a 0.26081658,0.26081658 0 0 0 0.0039,0.00586 c -0.0013,-0.00116 -0.0059,-0.024892 -0.0059,0 0,0.015318 0.0015,0.00819 0.002,0.00586 -0.0024,0.00309 0.0021,0.00391 -0.01953,0.00391 -0.02197,0 -0.01895,-6.627e-4 -0.02148,-0.00391 4.57e-4,0.00233 0.002,0.00946 0.002,-0.00586 0,-0.024892 -0.0046,-0.00116 -0.0059,0 a 0.26081658,0.26081658 0 0 0 0.0039,-0.00586 c 0.0072,-0.00681 -0.0017,-0.00391 0.02148,-0.00391 z"
           id="path8" />
      </g>
      <g
         id="path6"
         style="stroke-width:0.218992">
        <path
           style="color:#000000;-inkscape-font-specification:'Source Code Pro';fill:#4e9a06;stroke-width:0.218992;stroke-linecap:round;stroke-linejoin:round;-inkscape-stroke:none"
           d="m 10.105174,9.7970596 q -0.3047995,0 -0.5630326,-0.1100665 Q 9.2839083,9.5726932 9.0976418,9.3864267 L 9.3093083,9.1408935 q 0.1566332,0.1566332 0.3640664,0.2539998 0.2116664,0.093133 0.4487333,0.093133 0.287866,0 0.444499,-0.1227666 0.160867,-0.1227666 0.160867,-0.3174997 0,-0.1481666 -0.06773,-0.2370665 -0.0635,-0.0889 -0.177799,-0.1481665 -0.110067,-0.059267 -0.254,-0.1185333 L 9.8300079,8.3704275 Q 9.690308,8.3153942 9.5506081,8.2264943 9.4151415,8.1375944 9.3220083,7.9978945 9.228875,7.8581946 9.228875,7.6549948 q 0,-0.2116665 0.1142999,-0.3767664 Q 9.4617082,7.1088952 9.664908,7.015762 9.8723412,6.918395 10.139041,6.918395 q 0.262466,0 0.4826,0.097367 0.220133,0.093133 0.372533,0.2455331 L 10.807907,7.4898949 Q 10.67244,7.3671284 10.507341,7.2993951 q -0.1651,-0.071967 -0.381,-0.071967 -0.2412999,0 -0.3894664,0.1100665 -0.1481665,0.1100666 -0.1481665,0.2963331 0,0.1312333 0.071967,0.2158999 0.0762,0.084666 0.1904998,0.1396998 0.1142999,0.055033 0.2328331,0.1058333 l 0.389466,0.1693332 q 0.173567,0.067733 0.309033,0.1650998 0.1397,0.093133 0.220133,0.2328332 0.08467,0.1354665 0.08467,0.3428997 0,0.2201331 -0.118533,0.4021663 -0.118534,0.1777999 -0.338667,0.2836331 -0.220133,0.1058332 -0.524933,0.1058332 z m 2.586566,-0.0508 V 7.9724945 H 11.735008 V 7.6888614 h 1.303865 v 2.0573983 z m 0.135467,-2.4891979 q -0.118533,0 -0.198967,-0.071967 -0.08043,-0.0762 -0.08043,-0.1989665 0,-0.1227666 0.08043,-0.1947332 0.08043,-0.0762 0.198967,-0.0762 0.118533,0 0.198966,0.0762 0.08043,0.071967 0.08043,0.1947332 0,0.1227665 -0.08043,0.1989665 -0.08043,0.071967 -0.198966,0.071967 z m 1.5494,2.4891979 V 6.9691954 h 1.718732 v 0.296333 h -1.363132 v 0.872066 h 1.151466 v 0.3005664 h -1.151466 v 1.0075325 h 1.405465 v 0.3005664 z"
           id="path9" />
        <path
           style="color:#000000;-inkscape-font-specification:'Source Code Pro';fill:#000000;stroke-width:0.218992;stroke-linecap:round;stroke-linejoin:round;-inkscape-stroke:none"
           d="m 12.828125,6.6640625 c -0.08984,0 -0.171768,0.030529 -0.234375,0.089844 -0.06425,0.057488 -0.0957,0.1395547 -0.0957,0.2324219 0,0.092867 0.03226,0.1762202 0.0957,0.2363281 0.06281,0.056194 0.145138,0.083984 0.234375,0.083984 0.08924,0 0.169619,-0.02779 0.232422,-0.083984 0.06344,-0.060108 0.0957,-0.1434609 0.0957,-0.2363281 0,-0.092867 -0.03145,-0.1749335 -0.0957,-0.2324219 -0.06261,-0.059314 -0.142584,-0.089844 -0.232422,-0.089844 z m 0,0.1015625 c 0.06821,0 0.119427,0.020214 0.164063,0.0625 0.04299,0.038468 0.06445,0.087382 0.06445,0.1582031 0,0.070821 -0.02066,0.1206175 -0.06445,0.1621094 -0.04444,0.039762 -0.09525,0.058594 -0.164063,0.058594 -0.06881,10e-8 -0.121575,-0.018831 -0.166016,-0.058594 -0.04379,-0.041492 -0.06445,-0.091288 -0.06445,-0.1621094 0,-0.070821 0.02146,-0.1197359 0.06445,-0.1582031 0.04463,-0.042285 0.09781,-0.0625 0.166016,-0.0625 z m -2.689453,0.1015625 c -0.1839424,0 -0.350273,0.035069 -0.4960939,0.1035156 C 9.5006343,7.0360396 9.3867452,7.1299845 9.3027344,7.25 a 0.05048055,0.05048055 0 0 0 -0.00195,0 c -0.081946,0.1183666 -0.1230469,0.2541004 -0.1230469,0.4042969 0,0.1431779 0.033208,0.2685624 0.1015625,0.3710937 0.065613,0.09842 0.1481261,0.1811312 0.2441406,0.2441407 0.095583,0.060825 0.1906911,0.1104545 0.2871094,0.1484375 v -0.00195 l 0.396484,0.1738282 a 0.05048055,0.05048055 0 0 0 0.002,0 c 0.09467,0.03898 0.178525,0.078701 0.25,0.1171875 0.07044,0.036522 0.123065,0.080885 0.160157,0.1328125 a 0.05048055,0.05048055 0 0 0 0,0.00195 c 0.03696,0.048514 0.05859,0.1139916 0.05859,0.2050781 0,0.1159229 -0.04556,0.2033079 -0.142578,0.2773438 a 0.05048055,0.05048055 0 0 0 0,0.00195 C 10.442551,9.3987548 10.307782,9.4375 10.123047,9.4375 9.972273,9.4375 9.829542,9.408383 9.6953125,9.349609 h -0.00195 C 9.5606991,9.2871412 9.4455686,9.2053343 9.3457031,9.1054688 a 0.05048055,0.05048055 0 0 0 -0.074219,0.00195 L 9.0585938,9.3535156 A 0.05048055,0.05048055 0 0 0 9.0625,9.421875 c 0.1287742,0.1287742 0.2816569,0.2320577 0.4589844,0.3105469 a 0.05048055,0.05048055 0 0 0 0,0.00195 c 0.1787448,0.076186 0.3747091,0.1132813 0.5839846,0.1132813 0.209042,0 0.39192,-0.036831 0.546875,-0.1113282 0.153515,-0.073805 0.274917,-0.1740947 0.359375,-0.3007812 0.0841,-0.1291521 0.126953,-0.2738726 0.126953,-0.4296875 0,-0.1451564 -0.03117,-0.2690106 -0.09375,-0.3691406 h 0.002 C 10.989368,8.5368378 10.909652,8.4547417 10.810547,8.3886719 10.717455,8.3219473 10.61173,8.2648581 10.494141,8.21875 L 10.492141,8.2168 10.103469,8.0488312 C 10.02516,8.0152469 9.9485715,7.9797229 9.8730469,7.9433594 9.8025314,7.9094071 9.745096,7.8670673 9.6992188,7.8164062 9.6595755,7.7697674 9.6386719,7.7130277 9.6386719,7.6347656 c 0,-0.1107939 0.04107,-0.1906096 0.1289062,-0.2558594 0.088248,-0.065556 0.2061832,-0.1015624 0.3593749,-0.1015625 0.138325,0 0.256697,0.023602 0.359375,0.068359 a 0.05048055,0.05048055 0 0 0 0.002,0 c 0.104644,0.042931 0.198983,0.1035463 0.285157,0.1816406 a 0.05048055,0.05048055 0 0 0 0.07422,-0.00586 l 0.185547,-0.2285157 a 0.05048055,0.05048055 0 0 0 -0.0039,-0.066406 C 10.923112,7.1203772 10.793899,7.0329822 10.642578,6.96875 10.489035,6.9008368 10.319891,6.8671875 10.138672,6.8671875 Z m 4.238281,0.050781 a 0.05048055,0.05048055 0 0 0 -0.05078,0.050781 v 2.7773438 a 0.05048055,0.05048055 0 0 0 0.05078,0.050781 h 1.759766 A 0.05048055,0.05048055 0 0 0 16.1875,9.7460938 V 9.4453125 a 0.05048055,0.05048055 0 0 0 -0.05078,-0.050781 h -1.353516 v -0.90625 h 1.09961 A 0.05048055,0.05048055 0 0 0 15.933594,8.4375 V 8.1367188 a 0.05048055,0.05048055 0 0 0 -0.05078,-0.048828 h -1.09961 V 7.3164062 h 1.3125 a 0.05048055,0.05048055 0 0 0 0.05078,-0.050781 V 6.96875 A 0.05048055,0.05048055 0 0 0 16.095704,6.917969 Z M 10.138672,6.96875 c 0.168735,0 0.322922,0.031841 0.462891,0.09375 0.126081,0.053342 0.228017,0.1264522 0.318359,0.2089844 l -0.123047,0.1523437 c -0.08355,-0.068667 -0.170634,-0.1313017 -0.269531,-0.171875 v 0.00195 c -0.117455,-0.051198 -0.250849,-0.076172 -0.400391,-0.076172 -0.1685409,0 -0.3106148,0.037941 -0.4199217,0.1191406 -0.1097191,0.081506 -0.1679688,0.2003294 -0.1679688,0.3378906 0,0.096716 0.027672,0.181797 0.083984,0.2480469 0.055557,0.06173 0.1256659,0.1131674 0.2070312,0.1523438 0.076875,0.037014 0.1546865,0.073269 0.2343753,0.1074218 v -0.00195 l 0.388672,0.1699219 a 0.05048055,0.05048055 0 0 0 0.002,0.00195 c 0.112224,0.043794 0.212309,0.096017 0.298828,0.1582031 a 0.05048055,0.05048055 0 0 0 0,0.00195 c 0.08716,0.058107 0.155341,0.1284579 0.205078,0.2148437 a 0.05048055,0.05048055 0 0 0 0,0.00195 c 0.05031,0.080492 0.07813,0.1849853 0.07813,0.3164063 0,0.1376955 -0.03738,0.2614414 -0.111328,0.375 -0.07351,0.1093651 -0.179286,0.1987631 -0.318359,0.265625 -0.138556,0.066613 -0.304596,0.099609 -0.501953,0.099609 -0.1971244,0 -0.3774038,-0.0349 -0.5429694,-0.1054688 C 9.410889,9.5735185 9.2843173,9.483641 9.171875,9.3789063 l 0.1464844,-0.171875 c 0.099463,0.091487 0.20764,0.1750705 0.3339844,0.234375 0.1474691,0.064886 0.3060488,0.097656 0.4707032,0.097656 0.199086,0 0.358371,-0.04366 0.474609,-0.1347656 0.116496,-0.089562 0.179688,-0.2143258 0.179688,-0.3574219 0,-0.1064688 -0.02478,-0.1975588 -0.07813,-0.2675781 -0.04746,-0.065629 -0.11228,-0.1200678 -0.19336,-0.1621094 -0.07528,-0.040536 -0.160568,-0.079099 -0.257812,-0.1191406 L 9.8496094,8.3242188 a 0.05048055,0.05048055 0 0 0 -0.00195,0 C 9.7578082,8.2888241 9.6688089,8.2413017 9.578125,8.1835938 9.4935175,8.1280701 9.4218457,8.0585498 9.3632813,7.9707031 9.3074579,7.8869681 9.2792969,7.7820517 9.2792969,7.6542969 9.2792969,7.5222716 9.314312,7.408407 9.3847656,7.3066406 9.4585102,7.2012913 9.5572343,7.1213099 9.6855469,7.0625 a 0.05048055,0.05048055 0 0 0 0,-0.00195 C 9.8163033,6.999171 9.9670147,6.96875 10.138672,6.96875 Z m 4.289062,0.050781 h 1.617188 v 0.1953125 h -1.3125 a 0.05048055,0.05048055 0 0 0 -0.05078,0.050781 v 0.8710938 a 0.05048055,0.05048055 0 0 0 0.05078,0.050781 h 1.101562 V 8.3867188 H 14.732422 A 0.05048055,0.05048055 0 0 0 14.681641,8.4375 v 1.0078125 a 0.05048055,0.05048055 0 0 0 0.05078,0.050781 h 1.355469 v 0.1992187 h -1.660157 z m -2.693359,0.6191407 a 0.05048055,0.05048055 0 0 0 -0.05078,0.050781 v 0.2832031 a 0.05048055,0.05048055 0 0 0 0.05078,0.050781 h 0.90625 v 1.7226563 a 0.05048055,0.05048055 0 0 0 0.05078,0.050781 h 0.347657 a 0.05048055,0.05048055 0 0 0 0.05078,-0.050781 v -2.05664 a 0.05048055,0.05048055 0 0 0 -0.05078,-0.050781 z m 0.05078,0.1015625 H 12.98828 V 9.6953125 H 12.742188 V 7.9726562 a 0.05048055,0.05048055 0 0 0 -0.05078,-0.050781 h -0.90625 z"
           id="path10" />
      </g>
      <g
         id="path5"
         style="stroke-width:0.218992">
        <path
           style="color:#000000;-inkscape-font-specification:'Source Code Pro';fill:#000000;stroke-width:0.218992;stroke-linecap:round;stroke-linejoin:round;-inkscape-stroke:none"
           d="m 9.8554078,12.6317 q -0.1904998,0 -0.3513663,-0.06773 -0.1566332,-0.07197 -0.2539998,-0.2032 -0.093133,-0.131233 -0.093133,-0.313267 0,-0.232833 0.1481666,-0.385233 0.1523998,-0.156633 0.4825996,-0.249766 0.3301991,-0.09313 0.8593661,-0.135467 -0.0042,-0.1397 -0.05927,-0.253999 -0.0508,-0.118534 -0.169333,-0.1905 -0.118534,-0.07197 -0.3175,-0.07197 -0.1989662,0 -0.3894661,0.08043 -0.1862665,0.0762 -0.3301997,0.1651 L 9.2458083,10.769035 q 0.1566333,-0.1016 0.397933,-0.198967 0.2455332,-0.09737 0.5164667,-0.09737 0.423333,0 0.626532,0.232833 0.207434,0.2286 0.207434,0.613833 v 1.261532 H 10.71054 l -0.02963,-0.2794 h -0.0127 q -0.169333,0.131233 -0.381,0.232833 -0.211666,0.09737 -0.4317992,0.09737 z m 0.093133,-0.2794 q 0.1735672,0 0.3471332,-0.08043 0.1778,-0.08043 0.351367,-0.224367 v -0.541866 q -0.440267,0.03387 -0.6942669,0.105833 -0.2497664,0.06773 -0.3555997,0.173567 -0.1015999,0.1016 -0.1015999,0.237066 0,0.173567 0.1354666,0.254 0.1396998,0.0762 0.3174997,0.0762 z m 1.7991672,1.096433 v -2.925231 h 0.287866 l 0.02963,0.262466 h 0.0127 q 0.143933,-0.135466 0.330199,-0.224366 0.1905,-0.0889 0.381,-0.0889 0.414866,0 0.630766,0.287866 0.220133,0.283633 0.220133,0.761999 0,0.347134 -0.131233,0.5969 -0.131233,0.249766 -0.3429,0.381 -0.211666,0.131233 -0.461433,0.131233 -0.143933,0 -0.313266,-0.06773 -0.1651,-0.07197 -0.300566,-0.198967 h -0.0127 l 0.01693,0.389466 v 0.694267 z M 12.645174,12.3396 q 0.275166,0 0.452966,-0.2159 0.182033,-0.220133 0.182033,-0.601133 0,-0.338666 -0.135466,-0.546099 -0.135467,-0.211667 -0.4445,-0.211667 -0.135466,0 -0.2921,0.0762 -0.1524,0.07197 -0.313266,0.232834 V 12.0983 q 0.148166,0.131234 0.296333,0.186267 0.148167,0.05503 0.254,0.05503 z m 1.642533,1.109133 v -2.925231 h 0.287867 l 0.02963,0.262466 h 0.0127 q 0.143933,-0.135466 0.3302,-0.224366 0.1905,-0.0889 0.380999,-0.0889 0.414867,0 0.630767,0.287866 0.220133,0.283633 0.220133,0.761999 0,0.347134 -0.131233,0.5969 -0.131234,0.249766 -0.3429,0.381 -0.211667,0.131233 -0.461433,0.131233 -0.143933,0 -0.313267,-0.06773 -0.165099,-0.07197 -0.300566,-0.198967 h -0.0127 l 0.01693,0.389466 v 0.694267 z M 15.185173,12.3396 q 0.275167,0 0.452967,-0.2159 0.182033,-0.220133 0.182033,-0.601133 0,-0.338666 -0.135467,-0.546099 -0.135466,-0.211667 -0.444499,-0.211667 -0.135467,0 -0.2921,0.0762 -0.1524,0.07197 -0.313267,0.232834 V 12.0983 q 0.148167,0.131234 0.296333,0.186267 0.148167,0.05503 0.254,0.05503 z"
           id="path11" />
        <path
           style="color:#000000;-inkscape-font-specification:'Source Code Pro';fill:#000000;stroke-width:0.218992;stroke-linecap:round;stroke-linejoin:round;-inkscape-stroke:none"
           d="m 10.160156,10.369141 c -0.1929674,0 -0.3789243,0.03577 -0.5546872,0.105468 -0.1652256,0.06667 -0.3039331,0.134329 -0.4160157,0.207032 A 0.10306481,0.10306481 0 0 0 9.15625,10.820313 l 0.1347656,0.236328 a 0.10306481,0.10306481 0 0 0 0.1445313,0.03711 C 9.5257924,11.03801 9.6302117,10.984551 9.75,10.935547 a 0.10306481,0.10306481 0 0 0 0.00195,0 c 0.115156,-0.04862 0.2308516,-0.07227 0.34961,-0.07227 0.120218,0 0.206514,0.02194 0.263671,0.05664 0.06315,0.03834 0.101544,0.08524 0.126954,0.144531 a 0.10306481,0.10306481 0 0 0 0.002,0.0039 c 0.01751,0.03634 0.02105,0.08106 0.0293,0.123047 -0.295523,0.02873 -0.5637618,0.06471 -0.7636725,0.121094 -0.2306736,0.06506 -0.4088745,0.153576 -0.5292968,0.277344 -0.1170622,0.120407 -0.1757813,0.279949 -0.1757813,0.457031 0,0.138931 0.036224,0.267218 0.1113281,0.373047 a 0.10306481,0.10306481 0 0 0 0.00195,0.002 c 0.075296,0.101483 0.174315,0.181809 0.2929687,0.236328 a 0.10306481,0.10306481 0 0 0 0.00391,0 c 0.1206526,0.0508 0.2514119,0.07617 0.390625,0.07617 0.1619498,0 0.3211758,-0.03489 0.4746088,-0.105469 a 0.10306481,0.10306481 0 0 0 0.002,-0.002 c 0.09656,-0.04635 0.177122,-0.104459 0.261719,-0.160156 l 0.01367,0.125 a 0.10306481,0.10306481 0 0 0 0.103516,0.0918 h 0.283203 a 0.10306481,0.10306481 0 0 0 0.103515,-0.103516 v -1.259765 c 0,-0.274374 -0.07587,-0.508091 -0.232422,-0.681641 -0.158778,-0.181934 -0.403963,-0.269531 -0.705078,-0.269531 z m 2.628907,0 c -0.143031,0 -0.2849,0.03478 -0.423829,0.09961 a 0.10306481,0.10306481 0 0 0 -0.002,0 c -0.0797,0.03804 -0.143472,0.09418 -0.21289,0.144531 l -0.01172,-0.101562 a 0.10306481,0.10306481 0 0 0 -0.103516,-0.0918 h -0.287109 a 0.10306481,0.10306481 0 0 0 -0.103516,0.103516 v 2.925781 a 0.10306481,0.10306481 0 0 0 0.103516,0.103515 h 0.347656 a 0.10306481,0.10306481 0 0 0 0.101563,-0.103515 v -0.695313 a 0.10306481,0.10306481 0 0 0 0,-0.0039 l -0.0078,-0.197266 c 0.05348,0.03499 0.101581,0.07994 0.160156,0.105469 a 0.10306481,0.10306481 0 0 0 0.0039,0.002 c 0.122236,0.04889 0.239442,0.07422 0.351562,0.07422 0.18456,0 0.359086,-0.04943 0.515625,-0.146484 0.157889,-0.09789 0.284263,-0.239795 0.378906,-0.419922 0.09663,-0.183913 0.142579,-0.400123 0.142579,-0.644531 0,-0.333989 -0.07701,-0.613127 -0.240235,-0.824219 -0.162944,-0.217258 -0.412478,-0.330078 -0.71289,-0.330078 z m 2.541015,0 c -0.14303,0 -0.286852,0.03478 -0.425781,0.09961 -0.08024,0.0383 -0.145028,0.09571 -0.214844,0.146484 l -0.01172,-0.103515 a 0.10306481,0.10306481 0 0 0 -0.101562,-0.0918 h -0.289063 a 0.10306481,0.10306481 0 0 0 -0.101562,0.103516 v 2.925781 a 0.10306481,0.10306481 0 0 0 0.101562,0.103515 h 0.347657 a 0.10306481,0.10306481 0 0 0 0.103515,-0.103515 v -0.695313 a 0.10306481,0.10306481 0 0 0 0,-0.0039 l -0.0098,-0.199219 c 0.05416,0.03561 0.102707,0.08153 0.162109,0.107422 a 0.10306481,0.10306481 0 0 0 0.002,0.002 c 0.122237,0.04889 0.239443,0.07422 0.351563,0.07422 0.184559,0 0.359085,-0.04943 0.515625,-0.146484 0.157888,-0.09789 0.286215,-0.239795 0.380859,-0.419922 0.09663,-0.183913 0.142578,-0.400123 0.142578,-0.644531 0,-0.33399 -0.07896,-0.613127 -0.242187,-0.824219 -0.162968,-0.216293 -0.411202,-0.330078 -0.710938,-0.330078 z m -5.169922,0.207031 c 0.263329,0 0.436675,0.06876 0.548828,0.197266 a 0.10306481,0.10306481 0 0 0 0.002,0.002 c 0.11893,0.131065 0.179687,0.306597 0.179687,0.544922 v 1.158203 h -0.08789 l -0.01953,-0.1875 a 0.10306481,0.10306481 0 0 0 -0.101562,-0.0918 h -0.01367 a 0.10306481,0.10306481 0 0 0 -0.0625,0.02148 c -0.106634,0.08264 -0.22811,0.155821 -0.363281,0.220703 -0.128169,0.05867 -0.2557873,0.08789 -0.3867192,0.08789 -0.1147865,0 -0.2167111,-0.02104 -0.3105469,-0.06055 -0.087988,-0.0409 -0.1572053,-0.09629 -0.2109375,-0.167969 -0.049073,-0.06915 -0.074219,-0.150125 -0.074219,-0.253906 0,-0.133362 0.038648,-0.229707 0.1191407,-0.3125 0.082777,-0.08508 0.2279076,-0.163541 0.4375,-0.222656 0.2102169,-0.05929 0.4894029,-0.104931 0.8378909,-0.132813 A 0.10306481,0.10306481 0 0 0 10.75,11.273438 c -0.0031,-0.104329 -0.02614,-0.201945 -0.06836,-0.291016 l -0.002,-0.002 c -0.04249,-0.0976 -0.112963,-0.179215 -0.207032,-0.236328 -0.100887,-0.06126 -0.226024,-0.08594 -0.371093,-0.08594 -0.1465307,0 -0.2908443,0.02927 -0.429688,0.08789 -0.09308,0.03808 -0.1710248,0.08166 -0.25,0.125 L 9.3886719,10.8125 c 0.085431,-0.04886 0.1719581,-0.09765 0.2929687,-0.146484 0.1516143,-0.06013 0.310239,-0.08984 0.4785154,-0.08984 z m 2.628907,0 c 0.252741,0 0.423905,0.07953 0.548828,0.246094 a 0.10306481,0.10306481 0 0 0 0,0.002 c 0.129549,0.16692 0.199218,0.396116 0.199218,0.699219 0,0.218435 -0.04079,0.399719 -0.11914,0.548828 -0.08033,0.152894 -0.182308,0.262757 -0.306641,0.339843 -0.125682,0.07792 -0.257788,0.117188 -0.40625,0.117188 -0.07925,0 -0.170757,-0.01971 -0.273437,-0.06055 h -0.002 c -0.09859,-0.04318 -0.187786,-0.103052 -0.269532,-0.179687 a 0.10306481,0.10306481 0 0 0 -0.07031,-0.02734 h -0.01172 a 0.10306481,0.10306481 0 0 0 -0.103516,0.107422 l 0.01758,0.386718 v 0.589844 h -0.140625 v -2.71875 h 0.0918 l 0.01953,0.169922 a 0.10306481,0.10306481 0 0 0 0.101562,0.0918 h 0.01367 a 0.10306481,0.10306481 0 0 0 0.07031,-0.02734 c 0.0876,-0.08245 0.188238,-0.152206 0.302734,-0.207031 0.115071,-0.0537 0.226921,-0.07813 0.337891,-0.07813 z m 2.541015,0 c 0.252742,0 0.421952,0.07953 0.546875,0.246094 a 0.10306481,0.10306481 0 0 0 0.002,0.002 c 0.12955,0.16692 0.197266,0.396116 0.197266,0.699219 0,0.218435 -0.0408,0.399719 -0.119141,0.548828 -0.08033,0.152894 -0.180355,0.262757 -0.304687,0.339843 -0.125683,0.07792 -0.259742,0.117188 -0.408203,0.117188 -0.07871,0 -0.169662,-0.02029 -0.271485,-0.06055 -0.09918,-0.04323 -0.189326,-0.102666 -0.271484,-0.179687 a 0.10306481,0.10306481 0 0 0 -0.07031,-0.02734 h -0.01367 a 0.10306481,0.10306481 0 0 0 -0.101563,0.107422 l 0.01563,0.386718 v 0.589844 h -0.140625 v -2.71875 h 0.09375 l 0.01758,0.169922 a 0.10306481,0.10306481 0 0 0 0.103516,0.0918 h 0.01172 a 0.10306481,0.10306481 0 0 0 0.07226,-0.02734 c 0.08799,-0.08282 0.187608,-0.152084 0.302735,-0.207031 0.115071,-0.0537 0.226922,-0.07813 0.33789,-0.07813 z m -2.628906,0.08594 c -0.109633,0 -0.222959,0.03003 -0.337891,0.08594 -0.115748,0.05466 -0.22848,0.138638 -0.341797,0.251953 a 0.10306481,0.10306481 0 0 0 -0.0293,0.07422 v 1.023437 a 0.10306481,0.10306481 0 0 0 0.03516,0.07813 c 0.106188,0.09405 0.214793,0.162984 0.328125,0.205078 0.106285,0.03948 0.200645,0.0625 0.289062,0.0625 0.210397,0 0.398086,-0.08983 0.533203,-0.253906 0.139963,-0.169257 0.205079,-0.395603 0.205079,-0.666015 0,-0.238789 -0.04865,-0.442 -0.152344,-0.601563 -0.109655,-0.17008 -0.300428,-0.259766 -0.529297,-0.259766 z m 2.539062,0 c -0.109634,0 -0.222959,0.03003 -0.33789,0.08594 C 14.787044,10.802731 14.675397,10.887105 14.5625,11 a 0.10306481,0.10306481 0 0 0 -0.03125,0.07422 v 1.023437 a 0.10306481,0.10306481 0 0 0 0.03516,0.07813 c 0.106189,0.09405 0.214795,0.162984 0.328125,0.205078 0.106285,0.03948 0.202599,0.0625 0.291016,0.0625 0.210397,0 0.396132,-0.08983 0.53125,-0.253906 0.139962,-0.169257 0.207031,-0.395603 0.207031,-0.666015 0,-0.23879 -0.04865,-0.442 -0.152344,-0.601563 -0.10949,-0.171079 -0.301699,-0.259766 -0.53125,-0.259766 z m -2.539062,0.205079 c 0.182493,0 0.28629,0.05292 0.357422,0.164062 a 0.10306481,0.10306481 0 0 0 0,0.002 c 0.07627,0.116791 0.11914,0.278198 0.11914,0.490235 0,0.237587 -0.05545,0.410902 -0.158203,0.535156 -0.101949,0.123795 -0.218509,0.177734 -0.375,0.177734 -0.05269,0 -0.125524,-0.01493 -0.216797,-0.04883 -0.07353,-0.02731 -0.151393,-0.07967 -0.230468,-0.144531 V 11.125 c 0.08978,-0.08509 0.175421,-0.154342 0.253906,-0.191406 a 0.10306481,0.10306481 0 0 0 0.002,0 c 0.09391,-0.04569 0.177059,-0.06641 0.248047,-0.06641 z m 2.539062,0 c 0.182494,0 0.286291,0.05292 0.357422,0.164062 a 0.10306481,0.10306481 0 0 0 0,0.002 c 0.07627,0.116791 0.119141,0.278198 0.119141,0.490235 0,0.237587 -0.05546,0.410902 -0.158203,0.535156 -0.101949,0.123795 -0.216555,0.177734 -0.373047,0.177734 -0.05269,0 -0.127478,-0.01493 -0.21875,-0.04883 -0.07309,-0.02715 -0.149949,-0.0803 -0.228516,-0.144531 v -0.919922 c 0.08898,-0.08401 0.176054,-0.152688 0.253907,-0.189453 a 0.10306481,0.10306481 0 0 0 0.002,0 c 0.09391,-0.04569 0.175105,-0.06641 0.246093,-0.06641 z m -4.601562,0.535156 c -0.297565,0.02289 -0.534566,0.0583 -0.7148439,0.109375 -0.1750397,0.04766 -0.3093005,0.110078 -0.4003906,0.201172 -0.083927,0.08393 -0.1308594,0.192519 -0.1308594,0.308593 0,0.142522 0.067255,0.273515 0.1855469,0.34375 a 0.10306481,0.10306481 0 0 0 0.00391,0.002 c 0.109268,0.0596 0.2339322,0.08789 0.3671875,0.08789 0.1310045,0 0.2616435,-0.03126 0.3886725,-0.08984 0.128093,-0.05794 0.253239,-0.137306 0.375,-0.238281 A 0.10306481,0.10306481 0 0 0 10.75,12.046875 V 11.505859 A 0.10306481,0.10306481 0 0 0 10.638672,11.402344 Z M 10.544922,11.625 v 0.367188 c -0.09724,0.07641 -0.194337,0.141813 -0.291016,0.185546 a 0.10306481,0.10306481 0 0 0 -0.002,0 C 10.148132,12.225845 10.049012,12.25 9.9492188,12.25 c -0.1022196,0 -0.189496,-0.02176 -0.265625,-0.0625 -5.784e-4,-3.43e-4 5.715e-4,-0.0016 0,-0.002 -0.061025,-0.03671 -0.085938,-0.07599 -0.085937,-0.164063 0,-0.06455 0.020726,-0.112522 0.072266,-0.164062 0.049666,-0.04967 0.153574,-0.103918 0.3105469,-0.146484 0.1326513,-0.03758 0.3393403,-0.06386 0.5644533,-0.08594 z"
           id="path12" />
      </g>
    </g>
  </g>
</svg>
