<?xml version="1.0" encoding="UTF-8" standalone="no"?>
<!-- Created with Inkscape (http://www.inkscape.org/) -->

<svg
   width="220mm"
   height="250mm"
   viewBox="0 0 220 250"
   version="1.1"
   id="svg1"
   xmlns="http://www.w3.org/2000/svg"
   xmlns:svg="http://www.w3.org/2000/svg">
  <defs
     id="defs1" />
  <g
     id="g1"
     transform="translate(34.500001,90.135743)">
    <g
       id="layer1"
       transform="translate(-25.664062,-28.310547)">
      <path
         style="color:#000000;fill:#000000;stroke-linecap:square;-inkscape-stroke:none"
         d="m 61.664062,28.310547 v 0.5 12.5 h 37 v -13 z m 1,1 h 35 v 11 h -35 z"
         id="rect1" />
      <path
         style="color:#000000;fill:#000000;stroke-linecap:square;-inkscape-stroke:none"
         d="m 103.66406,28.310547 v 0.5 12.5 h 47 v -13 z m 1,1 h 45 v 11 h -45 z"
         id="rect1-2" />
      <path
         style="color:#000000;fill:#000000;stroke-linecap:square;-inkscape-stroke:none"
         d="m 25.664062,80.310547 v 0.5 12.5 h 47 v -13 z m 1,1 h 45 v 11 h -45 z"
         id="rect1-2-3" />
      <path
         style="color:#000000;fill:#000000;stroke-linecap:square;-inkscape-stroke:none"
         d="m 129.66406,80.310547 v 0.5 12.5 h 47 v -13 z m 1,1 h 45 v 11 h -45 z"
         id="rect1-2-3-0" />
      <path
         style="color:#000000;fill:#000000;stroke-linecap:square;-inkscape-stroke:none"
         d="m 83.664062,81.039062 v 0.5 16.5 h 36.999998 v -17 z m 1,1 h 34.999998 v 15 H 84.664062 Z"
         id="rect1-2-3-5" />
      <g
         id="rect1-2-3-6">
        <path
           style="color:#000000;fill:#e8c529;stroke-linecap:square;-inkscape-stroke:none"
           d="m 76.164589,52.810415 h 52.000001 v 22 H 76.164589 Z"
           id="path22" />
        <path
           style="color:#000000;fill:#000000;stroke-linecap:square;-inkscape-stroke:none"
           d="m 75.664062,52.310547 v 0.5 22.5 h 52.999998 v -23 z m 1,1 h 50.999998 v 21 H 76.664062 Z"
           id="path23" />
      </g>
      <g
         id="path1-8">
        <path
           style="color:#000000;fill:#000000;stroke-linecap:square;-inkscape-stroke:none"
           d="m 57.664062,64.310547 v 13.33789 0.5 h 1 v -0.5 -12.33789 h 17.5 0.5 v -1 h -0.5 z"
           id="path21" />
        <g
           id="g18">
          <g
             id="path18">
            <path
               style="color:#000000;fill:#000000;fill-rule:evenodd;-inkscape-stroke:none"
               d="m 58.164584,79.668899 -1.75,-3.0275 h 3.5 z"
               id="path19" />
            <path
               style="color:#000000;fill:#000000;fill-rule:evenodd;-inkscape-stroke:none"
               d="m 56.009766,76.408203 2.154296,3.726563 0.203125,-0.34961 1.951172,-3.376953 z M 56.818359,76.875 h 2.69336 l -1.347657,2.328125 z"
               id="path20" />
          </g>
        </g>
      </g>
      <g
         id="path1-8-7">
        <path
           style="color:#000000;fill:#000000;stroke-linecap:square;-inkscape-stroke:none"
           d="m 79.664062,40.310547 v 0.5 8.93164 0.5 h 1 v -0.5 -8.93164 -0.5 z"
           id="path17" />
        <g
           id="g14">
          <g
             id="path14">
            <path
               style="color:#000000;fill:#000000;fill-rule:evenodd;-inkscape-stroke:none"
               d="m 80.164585,51.762168 -1.75,-3.0275 h 3.5 z"
               id="path15" />
            <path
               style="color:#000000;fill:#000000;fill-rule:evenodd;-inkscape-stroke:none"
               d="m 78.009766,48.501953 2.154296,3.726563 0.203125,-0.34961 1.951172,-3.376953 z m 0.810546,0.466797 h 2.689454 l -1.345704,2.326172 z"
               id="path16" />
          </g>
        </g>
      </g>
      <g
         id="path1-8-0">
        <path
           style="color:#000000;fill:#000000;stroke-linecap:square;-inkscape-stroke:none"
           d="m 125.72852,40.398437 v 0.5 8.71875 0.5 h 1 v -0.5 -8.71875 -0.5 z"
           id="path5" />
        <g
           id="g2">
          <g
             id="path2">
            <path
               style="color:#000000;fill:#000000;fill-rule:evenodd;-inkscape-stroke:none"
               d="m 126.22938,51.636545 -1.75,-3.0275 h 3.5 z"
               id="path3" />
            <path
               style="color:#000000;fill:#000000;fill-rule:evenodd;-inkscape-stroke:none"
               d="m 124.07422,48.375 2.1543,3.728516 0.20312,-0.34961 1.95117,-3.378906 z m 0.80859,0.466797 h 2.69336 l -1.3457,2.328125 z"
               id="path4" />
          </g>
        </g>
      </g>
      <g
         id="path1-8-0-2">
        <path
           style="color:#000000;fill:#000000;stroke-linecap:square;-inkscape-stroke:none"
           d="m 127.66406,62.310547 v 1 h 0.5 25.5 v 14.099609 0.5 h 1 v -0.5 -15.099609 h -26.5 z"
           id="path13" />
        <g
           id="g10">
          <g
             id="path10">
            <path
               style="color:#000000;fill:#000000;fill-rule:evenodd;-inkscape-stroke:none"
               d="m 154.16458,79.42919 -1.75,-3.0275 h 3.5 z"
               id="path11" />
            <path
               style="color:#000000;fill:#000000;fill-rule:evenodd;-inkscape-stroke:none"
               d="m 152.00977,76.167969 2.15429,3.726562 0.20313,-0.347656 1.95117,-3.378906 z m 0.80859,0.466797 h 2.69336 l -1.34766,2.328125 z"
               id="path12" />
          </g>
        </g>
      </g>
      <g
         id="path1-6">
        <path
           style="color:#000000;fill:#000000;stroke-linecap:square;-inkscape-stroke:none"
           d="m 101.66406,74.310547 v 0.5 3.580078 0.5 h 1 v -0.5 -3.580078 -0.5 z"
           id="path9" />
        <g
           id="g6">
          <g
             id="path6">
            <path
               style="color:#000000;fill:#000000;fill-rule:evenodd;-inkscape-stroke:none"
               d="m 102.16458,80.410424 -1.75,-3.0275 h 3.5 z"
               id="path7" />
            <path
               style="color:#000000;fill:#000000;fill-rule:evenodd;-inkscape-stroke:none"
               d="m 100.00977,77.150391 2.15429,3.726562 0.20313,-0.349609 1.95117,-3.376953 z m 0.81054,0.466796 h 2.68946 l -1.34571,2.326172 z"
               id="path8" />
          </g>
        </g>
      </g>
    </g>
  </g>
</svg>
