<?xml version="1.0" encoding="UTF-8" standalone="no"?>
<!-- Created with Inkscape (http://www.inkscape.org/) -->

<svg
   width="220mm"
   height="250mm"
   viewBox="0 0 220 250"
   version="1.1"
   id="svg1"
   xmlns="http://www.w3.org/2000/svg"
   xmlns:svg="http://www.w3.org/2000/svg">
  <defs
     id="defs1" />
  <g
     id="g1"
     transform="translate(3.999999,47.5)">
    <g
       id="layer1"
       transform="translate(20.638672,84.667969)">
      <path
         style="color:#000000;fill:#000000;stroke-linecap:square;-inkscape-stroke:none"
         d="m 52.296875,-84.660156 v 0.5 12.5 h 43 v -13 z m 1,1 h 41 v 11 h -41 z"
         id="rect1-2-3-5-9-50" />
      <path
         style="color:#000000;fill:#000000;stroke-linecap:square;-inkscape-stroke:none"
         d="m 105.36133,-84.667969 v 0.5 12.5 h 43 v -13 z m 1,1 h 41 v 11 h -41 z"
         id="rect1-2-3-5-9-28" />
      <path
         style="color:#000000;fill:#000000;stroke-linecap:square;-inkscape-stroke:none"
         d="m 127.36133,-64.667969 v 0.5 12.5 h 43 v -13 z m 1,1 h 41 v 11 h -41 z"
         id="rect1-2-3-5-9-16" />
      <path
         style="color:#000000;fill:#000000;stroke-linecap:square;-inkscape-stroke:none"
         d="m 43.361328,-64.667969 v 0.5 12.5 h 43 v -13 z m 1,1 h 41 v 11 h -41 z"
         id="rect1-2-3-5-9-07" />
      <path
         style="color:#000000;fill:#000000;stroke-linecap:square;-inkscape-stroke:none"
         d="m 137.36133,-38.667969 v 0.5 12.5 h 50 v -13 z m 1,1 h 48 v 11 h -48 z"
         id="rect1-2-3-5-9-00" />
      <path
         style="color:#000000;fill:#000000;stroke-linecap:square;-inkscape-stroke:none"
         d="m 27.361328,-38.667969 v 0.5 12.5 h 43 v -13 z m 1,1 h 41 v 11 h -41 z"
         id="rect1-2-3-5-9-09" />
      <path
         style="color:#000000;fill:#000000;stroke-linecap:square;-inkscape-stroke:none"
         d="m 73.361328,-14.667969 v 0.5 10.5000002 H 135.36133 V -14.667969 Z m 1,1 h 60.000002 v 9.0000003 H 74.361328 Z"
         id="rect1-2-3-5-9-37" />
      <path
         style="color:#000000;fill:#000000;stroke-linecap:square;-inkscape-stroke:none"
         d="m 135.36133,9.3320313 v 0.5 12.4999997 h 43 V 9.3320313 Z m 1,0.9999997 h 41 v 11 h -41 z"
         id="rect1-2-3-5-9-48" />
      <path
         style="color:#000000;fill:#000000;stroke-linecap:square;-inkscape-stroke:none"
         d="m 27.361328,9.3320313 v 0.5 12.4999997 h 43 V 9.3320313 Z m 1,0.9999997 h 41 v 11 h -41 z"
         id="rect1-2-3-5-9-17" />
      <path
         style="color:#000000;fill:#000000;stroke-linecap:square;-inkscape-stroke:none"
         d="m -20.638672,9.3320313 v 0.5 12.4999997 h 43 V 9.3320313 Z m 1,0.9999997 h 41 v 11 h -41 z"
         id="rect1-2-3-5-9-06" />
      <g
         id="rect1-2-3-5-9-08">
        <path
           style="color:#000000;fill:#e8c529;stroke-linecap:square;-inkscape-stroke:none"
           d="m -4.138543,-18.16708 h 47.000002 v 18 H -4.138543 Z"
           id="path175" />
        <path
           style="color:#000000;fill:#000000;stroke-linecap:square;-inkscape-stroke:none"
           d="m -4.6386719,-18.667969 v 0.5 18.50000025 H 43.361328 V -18.667969 Z m 1,1 H 42.361328 V -0.66796875 H -3.6386719 Z"
           id="path176" />
      </g>
      <g
         id="rect1-2-3-5-9-87">
        <path
           style="color:#000000;fill:#e8c529;stroke-linecap:square;-inkscape-stroke:none"
           d="m 81.86146,-42.16708 h 45 v 20 h -45 z"
           id="path173" />
        <path
           style="color:#000000;fill:#000000;stroke-linecap:square;-inkscape-stroke:none"
           d="m 81.361328,-42.667969 v 0.5 20.5 h 46.000002 v -21 z m 1,1 h 44.000002 v 19 H 82.361328 Z"
           id="path174" />
      </g>
      <g
         id="rect1-2-3-5-9-70">
        <path
           style="color:#000000;fill:#e8c529;stroke-linecap:square;-inkscape-stroke:none"
           d="m 81.86146,5.83292 h 45.00001 v 20 H 81.86146 Z"
           id="path171" />
        <path
           style="color:#000000;fill:#000000;stroke-linecap:square;-inkscape-stroke:none"
           d="m 81.361328,5.3320312 v 0.5 20.4999998 H 127.36133 V 5.3320312 Z m 1,1 H 126.36133 V 25.332031 H 82.361328 Z"
           id="path172" />
      </g>
      <path
         style="color:#000000;fill:#000000;stroke-linecap:square;-inkscape-stroke:none"
         d="m 83.361328,37.332031 v 0.5 12.5 h 43.000002 v -13 z m 1,1 h 41.000002 v 11 H 84.361328 Z"
         id="rect1-2-3-5-9-81" />
      <g
         id="rect1-2-3-5-9-81-1">
        <path
           style="color:#000000;fill:#000000;stroke-linecap:square;-inkscape-stroke:none"
           d="m 101.99517,61.27657 h 5.56416 v 6.72639 h -5.56416 z"
           id="path169" />
        <path
           style="color:#000000;fill:#000000;stroke-linecap:square;-inkscape-stroke:none"
           d="m 101.49609,60.777344 v 0.5 7.226562 h 6.5625 v -7.726562 z m 1,1 h 4.5625 v 5.726562 h -4.5625 z"
           id="path170" />
      </g>
      <path
         style="color:#000000;fill:#000000;stroke-linecap:square;-inkscape-stroke:none"
         d="m 10.361328,27.332031 v 0.5 12.5 h 43 v -13 z m 1,1 h 41 v 11 h -41 z"
         id="rect1-2-3-5-9-501" />
      <path
         style="color:#000000;fill:#000000;stroke-linecap:square;-inkscape-stroke:none"
         d="m 118.36133,57.332031 v 0.5 12.5 h 73 v -13 z m 1,1 h 71 v 11 h -71 z"
         id="rect1-2-3-5-9-20" />
      <g
         id="path1-8-0-22-1-4-5">
        <path
           style="color:#000000;fill:#000000;stroke-linecap:square;-inkscape-stroke:none"
           d="m 103.92773,-22.232422 v 0.5 4.648438 0.5 h 1 v -0.5 -4.648438 -0.5 z"
           id="path168" />
        <g
           id="g165">
          <g
             id="path165">
            <path
               style="color:#000000;fill:#000000;fill-rule:evenodd;-inkscape-stroke:none"
               d="m 104.42834,-15.06526 -1.75,-3.0275 h 3.5 z"
               id="path166" />
            <path
               style="color:#000000;fill:#000000;fill-rule:evenodd;-inkscape-stroke:none"
               d="m 102.27344,-18.326172 2.15429,3.726563 0.20313,-0.34961 1.95117,-3.376953 z m 0.80859,0.466797 h 2.69336 l -1.3457,2.328125 z"
               id="path167" />
          </g>
        </g>
      </g>
      <g
         id="path1-8-0-22-1-4-56">
        <path
           style="color:#000000;fill:#000000;stroke-linecap:square;-inkscape-stroke:none"
           d="m 103.92773,-4.2382812 v 0.4999999 6.6640626 0.5 h 1 v -0.5 -6.6640626 -0.4999999 z"
           id="path164" />
        <g
           id="g161">
          <g
             id="path161">
            <path
               style="color:#000000;fill:#000000;fill-rule:evenodd;-inkscape-stroke:none"
               d="m 104.42834,4.94544 -1.75,-3.0275 h 3.5 z"
               id="path162" />
            <path
               style="color:#000000;fill:#000000;fill-rule:evenodd;-inkscape-stroke:none"
               d="m 102.27344,1.6855469 2.15429,3.7265625 0.20313,-0.3496094 1.95117,-3.3769531 z m 0.80859,0.4648437 h 2.69336 l -1.3457,2.328125 z"
               id="path163" />
          </g>
        </g>
      </g>
      <g
         id="path1-8-0-22-1-4-0">
        <path
           style="color:#000000;fill:#000000;stroke-linecap:square;-inkscape-stroke:none"
           d="m 104.10156,26.253906 v 0.5 8 0.5 h 1 v -0.5 -8 -0.5 z"
           id="path160" />
        <g
           id="g157">
          <g
             id="path157">
            <path
               style="color:#000000;fill:#000000;fill-rule:evenodd;-inkscape-stroke:none"
               d="m 104.60246,36.77366 -1.75,-3.0275 h 3.5 z"
               id="path158" />
            <path
               style="color:#000000;fill:#000000;fill-rule:evenodd;-inkscape-stroke:none"
               d="m 102.44727,33.513672 2.15429,3.726562 0.20313,-0.349609 1.95312,-3.376953 z m 0.81054,0.466797 h 2.68946 l -1.34571,2.326172 z"
               id="path159" />
          </g>
        </g>
      </g>
      <g
         id="path1-8-0-22-1-4-55">
        <path
           style="color:#000000;fill:#000000;stroke-linecap:square;-inkscape-stroke:none"
           d="m 104.36133,49.332031 v 0.5 8 0.5 h 1 v -0.5 -8 -0.5 z"
           id="path156" />
        <g
           id="g153">
          <g
             id="path153">
            <path
               style="color:#000000;fill:#000000;fill-rule:evenodd;-inkscape-stroke:none"
               d="m 104.86146,59.85243 -1.75,-3.0275 h 3.5 z"
               id="path154" />
            <path
               style="color:#000000;fill:#000000;fill-rule:evenodd;-inkscape-stroke:none"
               d="m 102.70703,56.591797 2.1543,3.726562 0.20117,-0.349609 1.95313,-3.376953 z m 0.80664,0.466797 h 2.69531 l -1.34765,2.330078 z"
               id="path155" />
          </g>
        </g>
      </g>
      <g
         id="path1-8-0-22-1-4-2">
        <path
           style="color:#000000;fill:#000000;stroke-linecap:square;-inkscape-stroke:none"
           d="m 72.361328,15.332031 v 1 h 0.5 8 0.5 v -1 h -0.5 -8 z"
           id="path152" />
        <g
           id="g149">
          <g
             id="path149">
            <path
               style="color:#000000;fill:#000000;fill-rule:evenodd;-inkscape-stroke:none"
               d="m 70.841962,15.83293 3.0275,-1.75 v 3.5 z"
               id="path150" />
            <path
               style="color:#000000;fill:#000000;fill-rule:evenodd;-inkscape-stroke:none"
               d="m 74.103516,13.677734 -3.728516,2.154297 0.349609,0.203125 3.378907,1.953125 z m -0.466797,0.808594 v 2.693359 l -2.328125,-1.347656 z"
               id="path151" />
          </g>
        </g>
      </g>
      <g
         id="path1-8-0-22-1-4-2-3">
        <path
           style="color:#000000;fill:#000000;stroke-linecap:square;-inkscape-stroke:none"
           d="m 129.51367,15.332031 v 1 h 0.5 5.84766 0.5 v -1 h -0.5 -5.84766 z"
           id="path148" />
        <g
           id="g145">
          <g
             id="path145">
            <path
               style="color:#000000;fill:#000000;fill-rule:evenodd;-inkscape-stroke:none"
               d="m 127.99446,15.83293 3.0275,-1.75 v 3.5 z"
               id="path146" />
            <path
               style="color:#000000;fill:#000000;fill-rule:evenodd;-inkscape-stroke:none"
               d="m 131.25586,13.677734 -3.72852,2.154297 0.34961,0.203125 3.37891,1.953125 z m -0.4668,0.808594 v 2.693359 l -2.32812,-1.347656 z"
               id="path147" />
          </g>
        </g>
      </g>
      <g
         id="path1-8-0-22-1-4-2-37">
        <path
           style="color:#000000;fill:#000000;stroke-linecap:square;-inkscape-stroke:none"
           d="m 110.36133,63.332031 v 1 h 0.5 8 0.5 v -1 h -0.5 -8 z"
           id="path144" />
        <g
           id="g141">
          <g
             id="path141">
            <path
               style="color:#000000;fill:#000000;fill-rule:evenodd;-inkscape-stroke:none"
               d="m 108.84196,63.83293 3.0275,-1.75 v 3.5 z"
               id="path142" />
            <path
               style="color:#000000;fill:#000000;fill-rule:evenodd;-inkscape-stroke:none"
               d="m 112.10352,61.677734 -3.72852,2.154297 0.34961,0.203125 3.37891,1.953125 z m -0.4668,0.808594 v 2.693359 l -2.32813,-1.347656 z"
               id="path143" />
          </g>
        </g>
      </g>
      <g
         id="path1-8-0-22-1-4-2-1">
        <path
           style="color:#000000;fill:#000000;stroke-linecap:square;-inkscape-stroke:none"
           d="m 4.3613281,3.3320313 v 0.5 6 0.4999997 h 1 v -0.4999997 -6 -0.5 z"
           id="path140" />
        <g
           id="g137">
          <g
             id="path137">
            <path
               style="color:#000000;fill:#000000;fill-rule:evenodd;-inkscape-stroke:none"
               d="m 4.861461,1.81343 1.75,3.0275 h -3.5 z"
               id="path138" />
            <path
               style="color:#000000;fill:#000000;fill-rule:evenodd;-inkscape-stroke:none"
               d="M 4.8613281,1.3476562 4.6601562,1.6972656 2.7070313,5.0742187 H 7.015625 Z m 0,0.9296876 1.3476563,2.3300781 H 3.5136719 Z"
               id="path139" />
          </g>
        </g>
      </g>
      <g
         id="path1-8-0-22-1-4-2-1-8">
        <path
           style="color:#000000;fill:#000000;stroke-linecap:square;-inkscape-stroke:none"
           d="m 24.361328,3.3320313 v 0.5 23.9999997 0.5 h 1 v -0.5 -23.9999997 -0.5 z"
           id="path136" />
        <g
           id="g133">
          <g
             id="path133">
            <path
               style="color:#000000;fill:#000000;fill-rule:evenodd;-inkscape-stroke:none"
               d="m 24.861461,1.81338 1.75,3.0275 h -3.5 z"
               id="path134" />
            <path
               style="color:#000000;fill:#000000;fill-rule:evenodd;-inkscape-stroke:none"
               d="m 24.861328,1.3476562 -0.201172,0.3496094 -1.953125,3.3769531 h 4.308594 z m 0,0.9296876 1.347656,2.3300781 h -2.695312 z"
               id="path135" />
          </g>
        </g>
      </g>
      <g
         id="path1-8-0-22-1-4-2-1-0">
        <path
           style="color:#000000;fill:#000000;stroke-linecap:square;-inkscape-stroke:none"
           d="m 36.361328,3.3320313 v 0.5 6 0.4999997 h 1 v -0.4999997 -6 -0.5 z"
           id="path132" />
        <g
           id="g129">
          <g
             id="path129">
            <path
               style="color:#000000;fill:#000000;fill-rule:evenodd;-inkscape-stroke:none"
               d="m 36.861461,1.81343 1.75,3.0275 h -3.5 z"
               id="path130" />
            <path
               style="color:#000000;fill:#000000;fill-rule:evenodd;-inkscape-stroke:none"
               d="m 36.861328,1.3476562 -0.201172,0.3496094 -1.953125,3.3769531 h 4.308594 z m 0,0.9296876 1.347656,2.3300781 h -2.695312 z"
               id="path131" />
          </g>
        </g>
      </g>
      <g
         id="path1-8-0-22-1-4-2-13">
        <path
           style="color:#000000;fill:#000000;stroke-linecap:square;-inkscape-stroke:none"
           d="m 69.361328,-32.667969 v 1 h 0.5 9 0.5 v -1 h -0.5 -9 z"
           id="path128" />
        <g
           id="g125">
          <g
             id="path125">
            <path
               style="color:#000000;fill:#000000;fill-rule:evenodd;-inkscape-stroke:none"
               d="m 80.88096,-32.16707 -3.0275,1.75 v -3.5 z"
               id="path126" />
            <path
               style="color:#000000;fill:#000000;fill-rule:evenodd;-inkscape-stroke:none"
               d="m 77.621094,-34.322266 v 4.310547 l 3.726562,-2.15625 -0.349609,-0.201172 z m 0.464843,0.808594 2.328125,1.345703 -2.328125,1.347657 z"
               id="path127" />
          </g>
        </g>
      </g>
      <g
         id="path1-8-0-22-1-4-2-6">
        <path
           style="color:#000000;fill:#000000;stroke-linecap:square;-inkscape-stroke:none"
           d="m 129.68359,-32.667969 v 1 h 0.5 7.40625 0.5 v -1 h -0.5 -7.40625 z"
           id="path124" />
        <g
           id="g121">
          <g
             id="path121">
            <path
               style="color:#000000;fill:#000000;fill-rule:evenodd;-inkscape-stroke:none"
               d="m 128.16396,-32.16707 3.0275,-1.75 v 3.5 z"
               id="path122" />
            <path
               style="color:#000000;fill:#000000;fill-rule:evenodd;-inkscape-stroke:none"
               d="m 131.42383,-34.322266 -3.72656,2.154297 0.3496,0.203125 3.37696,1.953125 z m -0.46485,0.808594 v 2.69336 l -2.32812,-1.347657 z"
               id="path123" />
          </g>
        </g>
      </g>
      <g
         id="path1-8-0-22-9-8-4-6">
        <path
           style="color:#000000;fill:#000000;stroke-linecap:square;-inkscape-stroke:none"
           d="m 10.361328,-34.667969 v 16.5 0.5 h 1 v -0.5 -15.5 h 13.5 0.5 v -1 h -0.5 z"
           id="path120" />
        <g
           id="g117">
          <g
             id="path117">
            <path
               style="color:#000000;fill:#000000;fill-rule:evenodd;-inkscape-stroke:none"
               d="m 26.880961,-34.16707 -3.0275,1.75 v -3.5 z"
               id="path118" />
            <path
               style="color:#000000;fill:#000000;fill-rule:evenodd;-inkscape-stroke:none"
               d="m 23.621094,-36.322266 v 4.310547 l 3.726562,-2.15625 -0.349609,-0.201172 z m 0.464843,0.808594 2.328125,1.345703 -2.328125,1.347657 z"
               id="path119" />
          </g>
        </g>
      </g>
      <g
         id="path1-8-0-22-9-8-4-8">
        <path
           style="color:#000000;fill:#000000;stroke-linecap:square;-inkscape-stroke:none"
           d="m 85.78125,-58.667969 v 1 h 0.5 6.080078 v 11.5 0.5 h 1 v -0.5 -12.5 H 86.28125 Z"
           id="path116" />
        <g
           id="g113">
          <g
             id="path113">
            <path
               style="color:#000000;fill:#000000;fill-rule:evenodd;-inkscape-stroke:none"
               d="m 92.86146,-44.14757 -1.75,-3.0275 h 3.5 z"
               id="path114" />
            <path
               style="color:#000000;fill:#000000;fill-rule:evenodd;-inkscape-stroke:none"
               d="m 90.707031,-47.408203 2.154297,3.726562 0.201172,-0.349609 1.953125,-3.376953 z m 0.806641,0.466797 h 2.695312 l -1.347656,2.330078 z"
               id="path115" />
          </g>
        </g>
      </g>
      <g
         id="path1-8-0-22-9-8-4-8-1">
        <path
           style="color:#000000;fill:#000000;stroke-linecap:square;-inkscape-stroke:none"
           d="m 74.361328,-72.667969 v 0.5 4.5 h 26.000002 v 21.5 0.5 h 1 v -0.5 -22.5 H 75.361328 v -3.5 -0.5 z"
           id="path112" />
        <g
           id="g109">
          <g
             id="path109">
            <path
               style="color:#000000;fill:#000000;fill-rule:evenodd;-inkscape-stroke:none"
               d="m 100.86146,-44.14757 -1.75,-3.0275 h 3.5 z"
               id="path110" />
            <path
               style="color:#000000;fill:#000000;fill-rule:evenodd;-inkscape-stroke:none"
               d="m 98.707031,-47.408203 2.154299,3.726562 0.20117,-0.349609 1.95313,-3.376953 z m 0.806641,0.466797 h 2.695308 l -1.34765,2.330078 z"
               id="path111" />
          </g>
        </g>
      </g>
      <g
         id="path1-8-0-22-9-8-4-8-26">
        <path
           style="color:#000000;fill:#000000;stroke-linecap:square;-inkscape-stroke:none"
           d="m 124.36133,-72.328125 v 0.5 3.160156 h -18 v 22.5 0.5 h 1 v -0.5 -21.5 h 18 v -4.160156 -0.5 z"
           id="path108" />
        <g
           id="g105">
          <g
             id="path105">
            <path
               style="color:#000000;fill:#000000;fill-rule:evenodd;-inkscape-stroke:none"
               d="m 106.86146,-44.14757 -1.75,-3.0275 h 3.5 z"
               id="path106" />
            <path
               style="color:#000000;fill:#000000;fill-rule:evenodd;-inkscape-stroke:none"
               d="m 104.70703,-47.408203 2.1543,3.726562 0.20117,-0.349609 1.95313,-3.376953 z m 0.80664,0.466797 h 2.69531 l -1.34765,2.330078 z"
               id="path107" />
          </g>
        </g>
      </g>
      <g
         id="path1-8-0-22-9-8-4-8-2">
        <path
           style="color:#000000;fill:#000000;stroke-linecap:square;-inkscape-stroke:none"
           d="m 116.36133,-58.667969 v 12.5 0.5 h 1 v -0.5 -11.5 h 10.5 0.5 v -1 h -0.5 z"
           id="path104" />
        <g
           id="g101">
          <g
             id="path101">
            <path
               style="color:#000000;fill:#000000;fill-rule:evenodd;-inkscape-stroke:none"
               d="m 116.86146,-44.14757 -1.75,-3.0275 h 3.5 z"
               id="path102" />
            <path
               style="color:#000000;fill:#000000;fill-rule:evenodd;-inkscape-stroke:none"
               d="m 114.70703,-47.408203 2.1543,3.726562 0.20117,-0.349609 1.95313,-3.376953 z m 0.80664,0.466797 h 2.69531 l -1.34765,2.330078 z"
               id="path103" />
          </g>
        </g>
      </g>
    </g>
  </g>
</svg>
