<?xml version="1.0" encoding="UTF-8" standalone="no"?>
<!-- Created with Inkscape (http://www.inkscape.org/) -->

<svg
   width="220mm"
   height="250mm"
   viewBox="0 0 220 250"
   version="1.1"
   id="svg1"
   xmlns="http://www.w3.org/2000/svg"
   xmlns:svg="http://www.w3.org/2000/svg">
  <defs
     id="defs1" />
  <g
     id="g1"
     transform="translate(30.5,3.5000005)">
    <g
       id="layer1"
       transform="translate(-42.068359,96.574219)">
      <g
         id="path1-8-0-22-9-8-4-8-2-2-3-7">
        <path
           style="color:#000000;fill:#000000;stroke-linecap:square;-inkscape-stroke:none"
           d="m 178.06836,-49.216797 v 0.5 80.142578 h -3.5 -0.5 v 1 h 0.5 4.5 v -81.142578 -0.5 z"
           id="path287" />
        <g
           id="g284">
          <g
             id="path284">
            <path
               style="color:#000000;fill:#000000;fill-rule:evenodd;-inkscape-stroke:none"
               d="m 178.56771,-50.73683 1.75,3.0275 h -3.5 z"
               id="path285" />
            <path
               style="color:#000000;fill:#000000;fill-rule:evenodd;-inkscape-stroke:none"
               d="m 178.56836,-51.203125 -0.20313,0.349609 -1.95117,3.376954 h 4.3086 z m -0.002,0.933594 1.3457,2.326172 h -2.68945 z"
               id="path286" />
          </g>
        </g>
      </g>
      <g
         id="path1-8-0-22-1-4-55-8-5-82-9">
        <path
           style="color:#000000;fill:#000000;stroke-linecap:square;-inkscape-stroke:none"
           d="m 110.21484,122.44336 v 1 h 0.5 11.85352 0.5 v -1 h -0.5 -11.85352 z"
           id="path283" />
        <g
           id="g280">
          <g
             id="path280">
            <path
               style="color:#000000;fill:#000000;fill-rule:evenodd;-inkscape-stroke:none"
               d="m 124.58721,122.94367 -3.0275,1.75 v -3.5 z"
               id="path281" />
            <path
               style="color:#000000;fill:#000000;fill-rule:evenodd;-inkscape-stroke:none"
               d="m 121.32617,120.78906 v 4.3086 l 3.72656,-2.1543 -0.3496,-0.20117 z m 0.4668,0.8086 2.32812,1.34765 -2.32812,1.34571 z"
               id="path282" />
          </g>
        </g>
      </g>
      <g
         id="path1-8-0-22-1-4-55-5-9">
        <path
           style="color:#000000;fill:#000000;stroke-linecap:square;-inkscape-stroke:none"
           d="m 128.06836,96.138672 v 0.5 3.083984 0.500004 h 1 v -0.500004 -3.083984 -0.5 z"
           id="path279" />
        <g
           id="g276">
          <g
             id="path276">
            <path
               style="color:#000000;fill:#000000;fill-rule:evenodd;-inkscape-stroke:none"
               d="m 128.56771,101.74267 -1.75,-3.0275 h 3.5 z"
               id="path277" />
            <path
               style="color:#000000;fill:#000000;fill-rule:evenodd;-inkscape-stroke:none"
               d="m 126.41406,98.482422 2.1543,3.726558 0.20117,-0.3496 1.95313,-3.376958 z m 0.8086,0.466797 h 2.68945 l -1.3457,2.326171 z"
               id="path278" />
          </g>
        </g>
      </g>
      <g
         id="path1-8-0-22-1-4-55-5-0">
        <path
           style="color:#000000;fill:#000000;stroke-linecap:square;-inkscape-stroke:none"
           d="m 128.11523,125.43945 -0.006,0.5 -0.041,4.42383 -0.006,0.5 1,0.008 0.006,-0.5 0.041,-4.42187 0.006,-0.5 z"
           id="path275" />
        <g
           id="g272">
          <g
             id="path272">
            <path
               style="color:#000000;fill:#000000;fill-rule:evenodd;-inkscape-stroke:none"
               d="m 128.54856,132.38665 -1.72124,-3.04394 3.49984,0.0331 z"
               id="path273" />
            <path
               style="color:#000000;fill:#000000;fill-rule:evenodd;-inkscape-stroke:none"
               d="m 126.42578,129.10547 2.11914,3.74805 0.20508,-0.34766 1.98437,-3.35938 z m 0.80469,0.47461 2.6914,0.0254 -1.36914,2.31445 z"
               id="path274" />
          </g>
        </g>
      </g>
      <g
         id="path1-8-0-22-1-4-55-5-6">
        <path
           style="color:#000000;fill:#000000;stroke-linecap:square;-inkscape-stroke:none"
           d="m 128.10937,112.92578 v 0.5 4.60938 0.5 h 1 v -0.5 -4.60938 -0.5 z"
           id="path271" />
        <g
           id="g268">
          <g
             id="path268">
            <path
               style="color:#000000;fill:#000000;fill-rule:evenodd;-inkscape-stroke:none"
               d="m 128.60959,120.05535 -1.75,-3.0275 h 3.5 z"
               id="path269" />
            <path
               style="color:#000000;fill:#000000;fill-rule:evenodd;-inkscape-stroke:none"
               d="m 126.45508,116.79492 2.15429,3.72656 0.20313,-0.3496 1.95117,-3.37696 z m 0.81055,0.4668 h 2.68945 l -1.34571,2.32812 z"
               id="path270" />
          </g>
        </g>
      </g>
      <g
         id="path1-8-0-22-9-8-4-8-2-2-3">
        <path
           style="color:#000000;fill:#000000;stroke-linecap:square;-inkscape-stroke:none"
           d="m 106.06836,-12.574219 v 7.1445315 0.5 h 1 v -0.5 -6.1445315 h 19.5 0.5 v -1 h -0.5 z"
           id="path267" />
        <g
           id="g264">
          <g
             id="path264">
            <path
               style="color:#000000;fill:#000000;fill-rule:evenodd;-inkscape-stroke:none"
               d="m 106.56771,-3.40983 -1.75,-3.0275 h 3.5 z"
               id="path265" />
            <path
               style="color:#000000;fill:#000000;fill-rule:evenodd;-inkscape-stroke:none"
               d="m 104.41406,-6.6699219 2.1543,3.7265625 0.20117,-0.3496094 1.95313,-3.3769531 z m 0.8086,0.4667969 h 2.68945 l -1.3457,2.3261719 z"
               id="path266" />
          </g>
        </g>
      </g>
      <g
         id="path1-8-0-22-9-8-4-8-2-2-6">
        <path
           style="color:#000000;fill:#000000;stroke-linecap:square;-inkscape-stroke:none"
           d="m 66.296875,-68.574219 v 0.5 16.5 h 4.136719 0.5 v -1 h -0.5 -3.136719 v -15.5 -0.5 z"
           id="path263" />
        <g
           id="g260">
          <g
             id="path260">
            <path
               style="color:#000000;fill:#000000;fill-rule:evenodd;-inkscape-stroke:none"
               d="m 72.453838,-52.07332 -3.0275,1.75 v -3.5 z"
               id="path261" />
            <path
               style="color:#000000;fill:#000000;fill-rule:evenodd;-inkscape-stroke:none"
               d="m 69.193359,-54.228516 v 4.310547 l 3.726563,-2.15625 -0.34961,-0.201172 z m 0.466797,0.810547 2.328125,1.34375 -2.328125,1.345703 z"
               id="path262" />
          </g>
        </g>
      </g>
      <g
         id="rect1-2-3-5-9-81-1-8">
        <path
           style="color:#000000;fill:#000000;stroke-linecap:square;-inkscape-stroke:none"
           d="m 106.13683,22.33548 h 4.80142 V 27.155 h -4.80142 z"
           id="path258" />
        <path
           style="color:#000000;fill:#000000;stroke-linecap:square;-inkscape-stroke:none"
           d="m 105.63672,21.835937 v 0.5 5.31836 h 5.80078 v -5.81836 z m 1,1 h 3.80078 v 3.81836 h -3.80078 z"
           id="path259" />
      </g>
      <path
         style="color:#000000;fill:#000000;stroke-linecap:square;-inkscape-stroke:none"
         d="m 65.068359,-96.574219 v 0.5 12.5 h 43.000001 v -13 z m 1,1 h 41.000001 v 11 H 66.068359 Z"
         id="rect1-2-3-5-9-52" />
      <path
         style="color:#000000;fill:#000000;stroke-linecap:square;-inkscape-stroke:none"
         d="m 115.06836,-96.574219 v 0.5 12.5 h 43 v -13 z m 1,1 h 41 v 11 h -41 z"
         id="rect1-2-3-5-9-9" />
      <path
         style="color:#000000;fill:#000000;stroke-linecap:square;-inkscape-stroke:none"
         d="m 141.06836,-80.574219 v 0.5 12.5 h 43 v -13 z m 1,1 h 41 v 11 h -41 z"
         id="rect1-2-3-5-9-524" />
      <path
         style="color:#000000;fill:#000000;stroke-linecap:square;-inkscape-stroke:none"
         d="m 42.068359,-80.574219 v 0.5 12.5 h 43 v -13 z m 1,1 h 41 v 11 h -41 z"
         id="rect1-2-3-5-9-6" />
      <g
         id="rect1-2-3-5-9-54">
        <path
           style="color:#000000;fill:#e8c529;stroke-linecap:square;-inkscape-stroke:none"
           d="m 73.567705,-62.07334 h 45.000005 v 17.99999 H 73.567705 Z"
           id="path256" />
        <path
           style="color:#000000;fill:#000000;stroke-linecap:square;-inkscape-stroke:none"
           d="m 73.068359,-62.574219 v 0.5 18.5 h 46.000001 v -19 z m 1,1 h 44.000001 v 17 H 74.068359 Z"
           id="path257" />
      </g>
      <path
         style="color:#000000;fill:#000000;stroke-linecap:square;-inkscape-stroke:none"
         d="m 158.06836,-64.574219 v 0.5 12.5 h 43 v -13 z m 1,1 h 41 v 11 h -41 z"
         id="rect1-2-3-5-9-27" />
      <path
         style="color:#000000;fill:#000000;stroke-linecap:square;-inkscape-stroke:none"
         d="m 70.068359,-34.574219 v 0.5 12.5 h 43.000001 v -13 z m 1,1 h 41.000001 v 11 H 71.068359 Z"
         id="rect1-2-3-5-9-75" />
      <path
         style="color:#000000;fill:#000000;stroke-linecap:square;-inkscape-stroke:none"
         d="m 129.06836,-46.574219 v 0.5 12.5 h 43 v -13 z m 1,1 h 41 v 11 h -41 z"
         id="rect1-2-3-5-9-26" />
      <g
         id="rect1-2-3-5-9-96">
        <path
           style="color:#000000;fill:#e8c529;stroke-linecap:square;-inkscape-stroke:none"
           d="m 126.56771,-24.07332 h 46 v 18 h -46 z"
           id="path254" />
        <path
           style="color:#000000;fill:#000000;stroke-linecap:square;-inkscape-stroke:none"
           d="m 126.06836,-24.574219 v 0.5 18.5000003 h 47 V -24.574219 Z m 1,1 h 45 v 17.0000003 h -45 z"
           id="path255" />
      </g>
      <path
         style="color:#000000;fill:#000000;stroke-linecap:square;-inkscape-stroke:none"
         d="m 86.068359,-2.5742188 v 0.5 10.5000001 H 129.06836 V -2.5742188 Z m 1,1.0000001 H 128.06836 V 7.4257812 H 87.068359 Z"
         id="rect1-2-3-5-9-529" />
      <path
         style="color:#000000;fill:#000000;stroke-linecap:square;-inkscape-stroke:none"
         d="m 130.06836,7.4257812 v 0.5 12.4999998 h 43 V 7.4257812 Z m 1,1.0000001 h 41 V 19.425781 h -41 z"
         id="rect1-2-3-5-9-32" />
      <path
         style="color:#000000;fill:#000000;stroke-linecap:square;-inkscape-stroke:none"
         d="m 53.068359,13.425781 v 0.5 18.5 h 44 v -19 z m 1,1 h 42 v 17 h -42 z"
         id="rect1-2-3-5-9-98" />
      <g
         id="rect1-2-3-5-9-45">
        <path
           style="color:#000000;fill:#e8c529;stroke-linecap:square;-inkscape-stroke:none"
           d="m 130.56771,27.92667 h 44 v 18.00001 h -44 z"
           id="path252" />
        <path
           style="color:#000000;fill:#000000;stroke-linecap:square;-inkscape-stroke:none"
           d="m 130.06836,27.425781 v 0.5 18.5 h 45 v -19 z m 1,1 h 43 v 17 h -43 z"
           id="path253" />
      </g>
      <path
         style="color:#000000;fill:#000000;stroke-linecap:square;-inkscape-stroke:none"
         d="m 134.06836,53.425781 v 0.5 12.5 h 25 v -13 z m 1,1 h 23 v 11 h -23 z"
         id="rect1-2-3-5-9-063" />
      <path
         style="color:#000000;fill:#000000;stroke-linecap:square;-inkscape-stroke:none"
         d="m 165.06836,59.425781 v 0.5 12.5 h 30 v -13 z m 1,1 h 28 v 11 h -28 z"
         id="rect1-2-3-5-9-59" />
      <path
         style="color:#000000;fill:#000000;stroke-linecap:square;-inkscape-stroke:none"
         d="m 160.06836,77.425781 v 0.5 12.5 h 35 v -13 z m 1,1 h 33 v 11 h -33 z"
         id="rect1-2-3-5-9-55" />
      <g
         id="rect1-2-3-5-9-24">
        <path
           style="color:#000000;fill:#e8c529;stroke-linecap:square;-inkscape-stroke:none"
           d="m 106.56771,77.92664 h 44.00001 v 18 h -44.00001 z"
           id="path250" />
        <path
           style="color:#000000;fill:#000000;stroke-linecap:square;-inkscape-stroke:none"
           d="m 106.06836,77.425781 v 0.5 18.5 h 45 v -19 z m 1,1 h 43 v 17 h -43 z"
           id="path251" />
      </g>
      <g
         id="rect1-2-3-5-9-523">
        <path
           style="color:#000000;fill:#e8c529;stroke-linecap:square;-inkscape-stroke:none"
           d="m 113.56771,102.92667 h 27 v 10 h -27 z"
           id="path248" />
        <path
           style="color:#000000;fill:#000000;stroke-linecap:square;-inkscape-stroke:none"
           d="m 113.06836,102.42578 v 0.5 10.5 h 28 v -11 z m 1,1 h 26 v 9 h -26 z"
           id="path249" />
      </g>
      <path
         style="color:#000000;fill:#000000;stroke-linecap:square;-inkscape-stroke:none"
         d="m 150.06836,99.425781 v 0.5 14.499999 h 33 V 99.425781 Z m 1,0.999999 h 31 v 13 h -31 z"
         id="rect1-2-3-5-9-5243" />
      <path
         style="color:#000000;fill:#000000;stroke-linecap:square;-inkscape-stroke:none"
         d="m 75.068359,112.44336 v 0.5 18.5 h 36.000001 v -19 z m 1,1 h 34.000001 v 17 H 76.068359 Z"
         id="rect1-2-3-5-9-42" />
      <path
         style="color:#000000;fill:#000000;stroke-linecap:square;-inkscape-stroke:none"
         d="m 107.06836,133.42578 v 0.5 12.5 h 43 v -13 z m 1,1 h 41 v 11 h -41 z"
         id="rect1-2-3-5-9-098" />
      <path
         style="color:#000000;fill:#000000;stroke-linecap:square;-inkscape-stroke:none"
         d="m 75.068359,57.425781 v 0.5 12.5 h 43.000001 v -13 z m 1,1 h 41.000001 v 11 H 76.068359 Z"
         id="rect1-2-3-5-9-67" />
      <g
         id="path1-8-0-22-1-4-55-4">
        <path
           style="color:#000000;fill:#000000;stroke-linecap:square;-inkscape-stroke:none"
           d="m 96.068359,-44.574219 v 0.5 6.814453 0.5 h 1 v -0.5 -6.814453 -0.5 z"
           id="path247" />
        <g
           id="g244">
          <g
             id="path244">
            <path
               style="color:#000000;fill:#000000;fill-rule:evenodd;-inkscape-stroke:none"
               d="m 96.56771,-35.24033 -1.75,-3.0275 h 3.5 z"
               id="path245" />
            <path
               style="color:#000000;fill:#000000;fill-rule:evenodd;-inkscape-stroke:none"
               d="m 94.414062,-38.501953 2.154297,3.728516 0.201172,-0.34961 1.953125,-3.378906 z m 0.806641,0.466797 h 2.693359 l -1.347656,2.328125 z"
               id="path246" />
          </g>
        </g>
      </g>
      <g
         id="path1-8-0-22-1-4-55-4-2">
        <path
           style="color:#000000;fill:#000000;stroke-linecap:square;-inkscape-stroke:none"
           d="m 148.06836,-34.574219 v 0.5 6.644532 0.5 h 1 v -0.5 -6.644532 -0.5 z"
           id="path243" />
        <g
           id="g240">
          <g
             id="path240">
            <path
               style="color:#000000;fill:#000000;fill-rule:evenodd;-inkscape-stroke:none"
               d="m 148.56771,-25.40983 -1.75,-3.0275 h 3.5 z"
               id="path241" />
            <path
               style="color:#000000;fill:#000000;fill-rule:evenodd;-inkscape-stroke:none"
               d="m 146.41406,-28.669922 2.1543,3.726563 0.20117,-0.34961 1.95313,-3.376953 z m 0.8086,0.466797 h 2.68945 l -1.3457,2.326172 z"
               id="path242" />
          </g>
        </g>
      </g>
      <g
         id="path1-8-0-22-1-4-55-1">
        <path
           style="color:#000000;fill:#000000;stroke-linecap:square;-inkscape-stroke:none"
           d="m 88.068359,-84.574219 v 0.5 18.802735 0.5 h 1 v -0.5 -18.802735 -0.5 z"
           id="path239" />
        <g
           id="g236">
          <g
             id="path236">
            <path
               style="color:#000000;fill:#000000;fill-rule:evenodd;-inkscape-stroke:none"
               d="m 88.56771,-63.25237 -1.75,-3.0275 h 3.5 z"
               id="path237" />
            <path
               style="color:#000000;fill:#000000;fill-rule:evenodd;-inkscape-stroke:none"
               d="m 86.414062,-66.513672 2.154297,3.728516 0.201172,-0.34961 1.953125,-3.378906 z m 0.806641,0.466797 h 2.693359 l -1.347656,2.328125 z"
               id="path238" />
          </g>
        </g>
      </g>
      <g
         id="path1-8-0-22-1-4-55-8">
        <path
           style="color:#000000;fill:#000000;stroke-linecap:square;-inkscape-stroke:none"
           d="m 152.06836,-6.5742187 v 0.5 10.8828124 0.5 h 1 v -0.5 -10.8828124 -0.5 z"
           id="path235" />
        <g
           id="g232">
          <g
             id="path232">
            <path
               style="color:#000000;fill:#000000;fill-rule:evenodd;-inkscape-stroke:none"
               d="m 152.56771,6.82769 -1.75,-3.0275 h 3.5 z"
               id="path233" />
            <path
               style="color:#000000;fill:#000000;fill-rule:evenodd;-inkscape-stroke:none"
               d="m 150.41406,3.5664063 2.1543,3.7265624 0.20117,-0.3476562 1.95313,-3.3789062 z m 0.80664,0.4667968 h 2.69336 l -1.34765,2.328125 z"
               id="path234" />
          </g>
        </g>
      </g>
      <g
         id="path1-8-0-22-1-4-55-8-0">
        <path
           style="color:#000000;fill:#000000;stroke-linecap:square;-inkscape-stroke:none"
           d="m 108.01367,7.5566406 v 0.5 10.8828124 0.5 h 1 v -0.5 -10.8828124 -0.5 z"
           id="path231" />
        <g
           id="g228">
          <g
             id="path228">
            <path
               style="color:#000000;fill:#000000;fill-rule:evenodd;-inkscape-stroke:none"
               d="m 108.51367,20.95827 -1.75,-3.0275 h 3.5 z"
               id="path229" />
            <path
               style="color:#000000;fill:#000000;fill-rule:evenodd;-inkscape-stroke:none"
               d="m 106.35938,17.697266 2.15429,3.726562 0.20117,-0.349609 1.95313,-3.376953 z m 0.80664,0.466796 h 2.69531 l -1.34766,2.330079 z"
               id="path230" />
          </g>
        </g>
      </g>
      <g
         id="path1-8-0-22-1-4-55-8-5">
        <path
           style="color:#000000;fill:#000000;stroke-linecap:square;-inkscape-stroke:none"
           d="m 96.279297,24.054687 v 1 h 0.5 6.000003 0.5 v -1 h -0.5 -6.000003 z"
           id="path227" />
        <g
           id="g224">
          <g
             id="path224">
            <path
               style="color:#000000;fill:#000000;fill-rule:evenodd;-inkscape-stroke:none"
               d="m 104.79908,24.55392 -3.0275,1.75 v -3.5 z"
               id="path225" />
            <path
               style="color:#000000;fill:#000000;fill-rule:evenodd;-inkscape-stroke:none"
               d="m 101.53906,22.400391 v 4.308593 l 3.72657,-2.154297 -0.34961,-0.203125 z m 0.4668,0.808593 2.32617,1.345703 -2.32617,1.34375 z"
               id="path226" />
          </g>
        </g>
      </g>
      <g
         id="path1-8-0-22-1-4-55-8-5-8">
        <path
           style="color:#000000;fill:#000000;stroke-linecap:square;-inkscape-stroke:none"
           d="m 153.42383,83.425781 v 1 h 0.5 6.64453 0.5 v -1 h -0.5 -6.64453 z"
           id="path223" />
        <g
           id="g220">
          <g
             id="path220">
            <path
               style="color:#000000;fill:#000000;fill-rule:evenodd;-inkscape-stroke:none"
               d="m 151.90421,83.92667 3.0275,-1.75 v 3.5 z"
               id="path221" />
            <path
               style="color:#000000;fill:#000000;fill-rule:evenodd;-inkscape-stroke:none"
               d="m 155.16602,81.771484 -3.72852,2.154297 0.34961,0.203125 3.37891,1.953125 z m -0.4668,0.808594 v 2.693359 l -2.32813,-1.347656 z"
               id="path222" />
          </g>
        </g>
      </g>
      <g
         id="path1-8-0-22-1-4-55-8-5-8-2">
        <path
           style="color:#000000;fill:#000000;stroke-linecap:square;-inkscape-stroke:none"
           d="m 121.26563,-58.574219 v 1 h 0.5 36.80273 0.5 v -1 h -0.5 -36.80273 z"
           id="path219" />
        <g
           id="g216">
          <g
             id="path216">
            <path
               style="color:#000000;fill:#000000;fill-rule:evenodd;-inkscape-stroke:none"
               d="m 119.74675,-58.07333 3.0275,-1.75 v 3.5 z"
               id="path217" />
            <path
               style="color:#000000;fill:#000000;fill-rule:evenodd;-inkscape-stroke:none"
               d="m 123.00781,-60.228516 -3.72656,2.154297 0.34961,0.203125 3.37695,1.953125 z m -0.46679,0.808594 v 2.69336 l -2.32813,-1.347657 z"
               id="path218" />
          </g>
        </g>
      </g>
      <g
         id="path1-8-0-22-1-4-55-8-5-82">
        <path
           style="color:#000000;fill:#000000;stroke-linecap:square;-inkscape-stroke:none"
           d="m 143.59375,107.81641 v 1 h 0.5 6.47461 0.5 v -1 h -0.5 -6.47461 z"
           id="path215" />
        <g
           id="g212">
          <g
             id="path212">
            <path
               style="color:#000000;fill:#000000;fill-rule:evenodd;-inkscape-stroke:none"
               d="m 142.07371,108.31649 3.0275,-1.75 v 3.5 z"
               id="path213" />
            <path
               style="color:#000000;fill:#000000;fill-rule:evenodd;-inkscape-stroke:none"
               d="m 145.33398,106.16211 -3.72656,2.1543 0.34961,0.20117 3.37695,1.95312 z m -0.46679,0.80859 v 2.69141 l -2.32813,-1.3457 z"
               id="path214" />
          </g>
        </g>
      </g>
      <g
         id="path1-8-0-22-1-4-55-3">
        <path
           style="color:#000000;fill:#000000;stroke-linecap:square;-inkscape-stroke:none"
           d="m 152.1875,19.359375 v 0.5 5.201172 0.5 h 1 v -0.5 -5.201172 -0.5 z"
           id="path211" />
        <g
           id="g208">
          <g
             id="path208">
            <path
               style="color:#000000;fill:#000000;fill-rule:evenodd;-inkscape-stroke:none"
               d="m 152.68667,27.07918 -1.75,-3.0275 h 3.5 z"
               id="path209" />
            <path
               style="color:#000000;fill:#000000;fill-rule:evenodd;-inkscape-stroke:none"
               d="m 150.5332,23.818359 2.1543,3.726563 0.20117,-0.34961 1.95313,-3.376953 z m 0.80664,0.466797 h 2.69336 l -1.3457,2.328125 z"
               id="path210" />
          </g>
        </g>
      </g>
      <g
         id="path1-8-0-22-1-4-55-3-8">
        <path
           style="color:#000000;fill:#000000;stroke-linecap:square;-inkscape-stroke:none"
           d="m 112.23438,69.384766 v 0.5 5.199218 0.5 h 1 v -0.5 -5.199218 -0.5 z"
           id="path207" />
        <g
           id="g204">
          <g
             id="path204">
            <path
               style="color:#000000;fill:#000000;fill-rule:evenodd;-inkscape-stroke:none"
               d="m 112.73459,77.10421 -1.75,-3.0275 h 3.5 z"
               id="path205" />
            <path
               style="color:#000000;fill:#000000;fill-rule:evenodd;-inkscape-stroke:none"
               d="m 110.58008,73.84375 2.1543,3.726562 0.20312,-0.349609 1.95117,-3.376953 z m 0.81055,0.466797 h 2.68945 l -1.3457,2.328125 z"
               id="path206" />
          </g>
        </g>
      </g>
      <g
         id="path1-8-0-22-1-4-55-15">
        <path
           style="color:#000000;fill:#000000;stroke-linecap:square;-inkscape-stroke:none"
           d="m 172.06836,49.425781 v 0.5 10 0.5 h 1 v -0.5 -10 -0.5 z"
           id="path203" />
        <g
           id="g200">
          <g
             id="path200">
            <path
               style="color:#000000;fill:#000000;fill-rule:evenodd;-inkscape-stroke:none"
               d="m 172.56771,47.90717 1.75,3.0275 h -3.5 z"
               id="path201" />
            <path
               style="color:#000000;fill:#000000;fill-rule:evenodd;-inkscape-stroke:none"
               d="m 172.56836,47.441406 -0.20313,0.34961 -1.95117,3.376953 h 4.3086 z m -0.002,0.931641 1.34765,2.328125 h -2.69336 z"
               id="path202" />
          </g>
        </g>
      </g>
      <g
         id="path1-8-0-22-1-4-55-5">
        <path
           style="color:#000000;fill:#000000;stroke-linecap:square;-inkscape-stroke:none"
           d="m 146.06836,48.816406 v 0.5 4.609375 0.5 h 1 v -0.5 -4.609375 -0.5 z"
           id="path199" />
        <g
           id="g196">
          <g
             id="path196">
            <path
               style="color:#000000;fill:#000000;fill-rule:evenodd;-inkscape-stroke:none"
               d="m 146.56771,47.29684 1.75,3.0275 h -3.5 z"
               id="path197" />
            <path
               style="color:#000000;fill:#000000;fill-rule:evenodd;-inkscape-stroke:none"
               d="m 146.56836,46.830078 -0.20313,0.349609 -1.95117,3.378907 h 4.3086 z m -0.002,0.933594 1.34765,2.328125 h -2.69336 z"
               id="path198" />
          </g>
        </g>
      </g>
      <g
         id="rect1-2-3-5-9-81-1-7">
        <path
           style="color:#000000;fill:#000000;stroke-linecap:square;-inkscape-stroke:none"
           d="m 126.03016,121.27722 h 4.97091 v 4.09913 h -4.97091 z"
           id="path194" />
        <path
           style="color:#000000;fill:#000000;stroke-linecap:square;-inkscape-stroke:none"
           d="m 125.5293,120.77734 v 0.5 4.59961 h 5.97265 v -5.09961 z m 1,1 h 3.97265 v 3.09961 h -3.97265 z"
           id="path195" />
      </g>
      <g
         id="path1-8-0-22-9-8-4-8-26-8">
        <path
           style="color:#000000;fill:#000000;stroke-linecap:square;-inkscape-stroke:none"
           d="m 132.06836,-84.574219 v 0.5 5.5 H 96.068359 v 13.302735 0.5 h 1 v -0.5 -12.302735 h 36.000001 v -6.5 -0.5 z"
           id="path193" />
        <g
           id="g190">
          <g
             id="path190">
            <path
               style="color:#000000;fill:#000000;fill-rule:evenodd;-inkscape-stroke:none"
               d="m 96.56771,-63.25237 -1.75,-3.0275 h 3.5 z"
               id="path191" />
            <path
               style="color:#000000;fill:#000000;fill-rule:evenodd;-inkscape-stroke:none"
               d="m 94.414062,-66.513672 2.154297,3.728516 0.201172,-0.34961 1.953125,-3.378906 z m 0.806641,0.466797 h 2.693359 l -1.347656,2.328125 z"
               id="path192" />
          </g>
        </g>
      </g>
      <g
         id="path1-8-0-22-9-8-4-8-26-8-3">
        <path
           style="color:#000000;fill:#000000;stroke-linecap:square;-inkscape-stroke:none"
           d="m 108.06836,25.425781 v 0.5 26.5 h 20 v 23.5 0.5 h 1 v -0.5 -24.5 h -20 v -25.5 -0.5 z"
           id="path189" />
        <g
           id="g186">
          <g
             id="path186">
            <path
               style="color:#000000;fill:#000000;fill-rule:evenodd;-inkscape-stroke:none"
               d="m 128.56771,77.94617 -1.75,-3.0275 h 3.5 z"
               id="path187" />
            <path
               style="color:#000000;fill:#000000;fill-rule:evenodd;-inkscape-stroke:none"
               d="m 126.41406,74.685547 2.1543,3.726562 0.20117,-0.349609 1.95313,-3.376953 z m 0.80664,0.466797 h 2.69336 l -1.34765,2.328125 z"
               id="path188" />
          </g>
        </g>
      </g>
      <g
         id="path1-8-0-22-9-8-4-8-2-2">
        <path
           style="color:#000000;fill:#000000;stroke-linecap:square;-inkscape-stroke:none"
           d="m 104.06836,-74.574219 v 9.361328 0.5 h 1 v -0.5 -8.361328 h 36.24023 0.5 v -1 h -0.5 z"
           id="path185" />
        <g
           id="g182">
          <g
             id="path182">
            <path
               style="color:#000000;fill:#000000;fill-rule:evenodd;-inkscape-stroke:none"
               d="m 104.56771,-63.19244 -1.75,-3.0275 h 3.5 z"
               id="path183" />
            <path
               style="color:#000000;fill:#000000;fill-rule:evenodd;-inkscape-stroke:none"
               d="m 102.41406,-66.453125 2.1543,3.726563 0.20117,-0.34961 1.95313,-3.376953 z m 0.80664,0.466797 h 2.69336 l -1.34765,2.328125 z"
               id="path184" />
          </g>
        </g>
      </g>
      <g
         id="path1-8-0-22-9-8-4-8-2-2-4">
        <path
           style="color:#000000;fill:#000000;stroke-linecap:square;-inkscape-stroke:none"
           d="m 94.068359,-22.574219 v 0.5 6.5 h 29.058591 0.5 v -1 h -0.5 -28.058591 v -5.5 -0.5 z"
           id="path181" />
        <g
           id="g178">
          <g
             id="path178">
            <path
               style="color:#000000;fill:#000000;fill-rule:evenodd;-inkscape-stroke:none"
               d="m 125.14646,-16.07333 -3.0275,1.75 v -3.5 z"
               id="path179" />
            <path
               style="color:#000000;fill:#000000;fill-rule:evenodd;-inkscape-stroke:none"
               d="m 121.88477,-18.228516 v 4.310547 l 3.72851,-2.15625 -0.34961,-0.201172 z m 0.46679,0.808594 2.32813,1.345703 -2.32813,1.347656 z"
               id="path180" />
          </g>
        </g>
      </g>
    </g>
  </g>
</svg>
