<?xml version="1.0" encoding="UTF-8" standalone="no"?>
<!-- Created with Inkscape (http://www.inkscape.org/) -->

<svg
   width="220mm"
   height="250mm"
   viewBox="0 0 220 250"
   version="1.1"
   id="svg1"
   xmlns="http://www.w3.org/2000/svg"
   xmlns:svg="http://www.w3.org/2000/svg">
  <defs
     id="defs1" />
  <g
     id="g1"
     transform="translate(4.0000025,34.5)">
    <g
       id="layer1"
       transform="translate(32.015625,100.80664)">
      <g
         id="rect1-2-3-5-8">
        <path
           style="color:#000000;fill:#e8c529;stroke-linecap:square;-inkscape-stroke:none"
           d="m 41.484899,-76.30612 h 47.999998 v 20 H 41.484899 Z"
           id="path99" />
        <path
           style="color:#000000;fill:#000000;stroke-linecap:square;-inkscape-stroke:none"
           d="m 40.984375,-76.806641 v 0.5 20.5 h 49 v -21 z m 1,1 h 47 v 19 h -47 z"
           id="path100" />
      </g>
      <path
         style="color:#000000;fill:#000000;stroke-linecap:square;-inkscape-stroke:none"
         d="m 46.984375,-100.80664 v 0.5 12.499999 h 43 v -12.999999 z m 1,0.999999 h 41 v 11 h -41 z"
         id="rect1-2-3-5-9" />
      <path
         style="color:#000000;fill:#000000;stroke-linecap:square;-inkscape-stroke:none"
         d="m 104.98438,-72.806641 v 0.5 12.5 h 42.99999 v -13 z m 1,1 h 40.99999 v 11 h -40.99999 z"
         id="rect1-2-3-5-9-1" />
      <path
         style="color:#000000;fill:#000000;stroke-linecap:square;-inkscape-stroke:none"
         d="m -15.015625,-72.806641 v 0.5 12.5 h 43 v -13 z m 1,1 h 41 v 11 h -41 z"
         id="rect1-2-3-5-9-5" />
      <path
         style="color:#000000;fill:#000000;stroke-linecap:square;-inkscape-stroke:none"
         d="m 51.984375,-50.806641 v 0.5 10.5 h 42 v -11 z m 1,1 h 40 v 9 h -40 z"
         id="rect1-2-3-5-9-3" />
      <path
         style="color:#000000;fill:#000000;stroke-linecap:square;-inkscape-stroke:none"
         d="m -30.015625,-48.806641 v 0.5 10.5 h 50 v -11 z m 1,1 h 48 v 9 h -48 z"
         id="rect1-2-3-5-9-8" />
      <g
         id="rect1-2-3-5-9-58">
        <path
           style="color:#000000;fill:#e8c529;stroke-linecap:square;-inkscape-stroke:none"
           d="m 1.484899,-30.30612 h 46.000003 v 20 H 1.484899 Z"
           id="path97" />
        <path
           style="color:#000000;fill:#000000;stroke-linecap:square;-inkscape-stroke:none"
           d="m 0.984375,-30.806641 v 0.5 20.5000004 h 47 V -30.806641 Z m 1,1 h 45 v 19 h -45 z"
           id="path98" />
      </g>
      <path
         style="color:#000000;fill:#000000;stroke-linecap:square;-inkscape-stroke:none"
         d="m 58.984375,-28.806641 v 0.5 12.5 h 39 v -13 z m 1,1 h 37 v 11 h -37 z"
         id="rect1-2-3-5-9-2" />
      <path
         style="color:#000000;fill:#000000;stroke-linecap:square;-inkscape-stroke:none"
         d="m 3.984375,-0.80664063 v 0.5 10.49999963 h 42 V -0.80664063 Z m 1,1 h 40 V 9.1933594 h -40 z"
         id="rect1-2-3-5-9-4" />
      <path
         style="color:#000000;fill:#000000;stroke-linecap:square;-inkscape-stroke:none"
         d="m -32.015625,9.1933594 v 0.5 10.4999996 h 32 V 9.1933594 Z m 1,0.9999996 h 30 v 9 h -30 z"
         id="rect1-2-3-5-9-46" />
      <g
         id="rect1-2-3-5-9-7">
        <path
           style="color:#000000;fill:#e8c529;stroke-linecap:square;-inkscape-stroke:none"
           d="m -4.515103,21.69388 h 58.000001 v 20 H -4.515103 Z"
           id="path95" />
        <path
           style="color:#000000;fill:#000000;stroke-linecap:square;-inkscape-stroke:none"
           d="m -5.015625,21.193359 v 0.5 20.5 h 59 v -21 z m 1,1 h 57 v 19 h -57 z"
           id="path96" />
      </g>
      <path
         style="color:#000000;fill:#000000;stroke-linecap:square;-inkscape-stroke:none"
         d="m 64.984375,25.193359 v 0.5 12.5 h 43.000005 v -13 z m 1,1 h 41.000005 v 11 H 65.984375 Z"
         id="rect1-2-3-5-9-89" />
      <g
         id="rect1-2-3-5-9-0">
        <path
           style="color:#000000;fill:#e8c529;stroke-linecap:square;-inkscape-stroke:none"
           d="M 84.484897,-6.30612 H 133.48491 V 13.69387 H 84.484897 Z"
           id="path93" />
        <path
           style="color:#000000;fill:#000000;stroke-linecap:square;-inkscape-stroke:none"
           d="m 83.984375,-6.8066406 v 0.5 20.4999996 H 133.98437 V -6.8066406 Z m 1,1 H 132.98437 V 13.193359 H 84.984375 Z"
           id="path94" />
      </g>
      <path
         style="color:#000000;fill:#000000;stroke-linecap:square;-inkscape-stroke:none"
         d="m 138.98437,25.193359 v 0.5 16.5 h 41 v -17 z m 1,1 h 39 v 15 h -39 z"
         id="rect1-2-3-5-9-14" />
      <path
         style="color:#000000;fill:#000000;stroke-linecap:square;-inkscape-stroke:none"
         d="m 10.984375,49.193359 v 0.5 12.5 h 43 v -13 z m 1,1 h 41 v 11 h -41 z"
         id="rect1-2-3-5-9-25" />
      <path
         style="color:#000000;fill:#000000;stroke-linecap:square;-inkscape-stroke:none"
         d="m 10.984375,67.193359 v 0.5 12.5 h 43 v -13 z m 1,1 h 41 v 11 h -41 z"
         id="rect1-2-3-5-9-44" />
      <g
         id="path1-8-0-22">
        <path
           style="color:#000000;fill:#000000;stroke-linecap:square;-inkscape-stroke:none"
           d="m 68.984375,-88.416016 v 0.5 8.457032 0.5 h 1 v -0.5 -8.457032 -0.5 z"
           id="path92" />
        <g
           id="g89">
          <g
             id="path89">
            <path
               style="color:#000000;fill:#000000;fill-rule:evenodd;-inkscape-stroke:none"
               d="m 69.484897,-77.43912 -1.75,-3.0275 h 3.5 z"
               id="path90" />
            <path
               style="color:#000000;fill:#000000;fill-rule:evenodd;-inkscape-stroke:none"
               d="m 67.330078,-80.699219 2.154297,3.726563 0.203125,-0.34961 1.951172,-3.376953 z m 0.810547,0.466797 h 2.689453 l -1.345703,2.326172 z"
               id="path91" />
          </g>
        </g>
      </g>
      <g
         id="path1-8-0-22-5">
        <path
           style="color:#000000;fill:#000000;stroke-linecap:square;-inkscape-stroke:none"
           d="m 90.984375,17.193359 v 0.5 8 0.5 h 1 v -0.5 -8 -0.5 z"
           id="path88" />
        <g
           id="g85">
          <g
             id="path85">
            <path
               style="color:#000000;fill:#000000;fill-rule:evenodd;-inkscape-stroke:none"
               d="m 91.484897,15.67437 1.75,3.0275 h -3.5 z"
               id="path86" />
            <path
               style="color:#000000;fill:#000000;fill-rule:evenodd;-inkscape-stroke:none"
               d="m 91.484375,15.208984 -0.201172,0.347657 -1.953125,3.378906 h 4.308594 z m 0,0.931641 1.347656,2.328125 h -2.693359 z"
               id="path87" />
          </g>
        </g>
      </g>
      <g
         id="path1-8-0-22-1">
        <path
           style="color:#000000;fill:#000000;stroke-linecap:square;-inkscape-stroke:none"
           d="m 22.984375,-10.806641 v 0.5 6.8984379 0.5 h 1 v -0.5 -6.8984379 -0.5 z"
           id="path84" />
        <g
           id="g81">
          <g
             id="path81">
            <path
               style="color:#000000;fill:#000000;fill-rule:evenodd;-inkscape-stroke:none"
               d="m 23.484898,-1.38838 -1.75,-3.0275 h 3.5 z"
               id="path82" />
            <path
               style="color:#000000;fill:#000000;fill-rule:evenodd;-inkscape-stroke:none"
               d="m 21.330078,-4.6484375 2.154297,3.7265625 0.203125,-0.3496094 1.951172,-3.3769531 z m 0.810547,0.4667969 h 2.689453 l -1.345703,2.3261719 z"
               id="path83" />
          </g>
        </g>
      </g>
      <g
         id="path1-8-0-22-1-4">
        <path
           style="color:#000000;fill:#000000;stroke-linecap:square;-inkscape-stroke:none"
           d="m 24.484375,9.6582008 v 0.5000002 l 0,7.535158 v 0.5 h 1 v -0.5 l 0,-7.535158 V 9.6582008 Z"
           id="path80" />
        <g
           id="g77">
          <g
             id="path77">
            <path
               style="color:#000000;fill:#000000;fill-rule:evenodd;-inkscape-stroke:none"
               d="m 24.984897,19.71337 -1.75,-3.0275 h 3.5 z"
               id="path78" />
            <path
               style="color:#000000;fill:#000000;fill-rule:evenodd;-inkscape-stroke:none"
               d="m 22.830078,16.453125 2.154297,3.726562 0.203125,-0.349609 1.951172,-3.376953 z m 0.810547,0.466797 h 2.689453 l -1.345703,2.326172 z"
               id="path79" />
          </g>
        </g>
      </g>
      <g
         id="path1-8-0-22-9">
        <path
           style="color:#000000;fill:#000000;stroke-linecap:square;-inkscape-stroke:none"
           d="m 26.984375,-46.806641 v 12.923829 0.5 h 1 v -0.5 -11.923829 h 23.939017 0.5 v -1 h -0.5 z"
           id="path76" />
        <g
           id="g73">
          <g
             id="path73">
            <path
               style="color:#000000;fill:#000000;fill-rule:evenodd;-inkscape-stroke:none"
               d="m 27.484899,-31.86287 -1.75,-3.0275 h 3.5 z"
               id="path74" />
            <path
               style="color:#000000;fill:#000000;fill-rule:evenodd;-inkscape-stroke:none"
               d="m 25.330078,-35.123047 2.154297,3.726563 0.203125,-0.34961 1.951172,-3.376953 z m 0.810547,0.466797 h 2.689453 l -1.345703,2.326172 z"
               id="path75" />
          </g>
        </g>
      </g>
      <g
         id="path1-8-0-22-9-1">
        <path
           style="color:#000000;fill:#000000;stroke-linecap:square;-inkscape-stroke:none"
           d="m -9.015625,-38.496209 v 0.5 18.189568 h 7.2636719 0.5 v -1 h -0.5 -6.2636719 v -17.189568 -0.5 z"
           id="path72" />
        <g
           id="g69">
          <g
             id="path69">
            <path
               style="color:#000000;fill:#000000;fill-rule:evenodd;-inkscape-stroke:none"
               d="m 0.26714897,-20.30612 -3.02749997,1.75 v -3.5 z"
               id="path70" />
            <path
               style="color:#000000;fill:#000000;fill-rule:evenodd;-inkscape-stroke:none"
               d="m -2.9941406,-22.460937 v 4.308593 l 3.7285156,-2.154297 -0.34960937,-0.201171 z m 0.4667968,0.808593 2.32812505,1.347657 -2.32812505,1.345703 z"
               id="path71" />
          </g>
        </g>
      </g>
      <g
         id="path1-8-0-22-9-1-9">
        <path
           style="color:#000000;fill:#000000;stroke-linecap:square;-inkscape-stroke:none"
           d="m -12.015625,19.554902 v 0.5 l 0,12.138457 h 4.46875 0.5 v -1 h -0.5 -3.46875 l 0,-11.138457 v -0.5 z"
           id="path68" />
        <g
           id="g65">
          <g
             id="path65">
            <path
               style="color:#000000;fill:#000000;fill-rule:evenodd;-inkscape-stroke:none"
               d="m -5.526809,31.69387 -3.0275,1.75 v -3.5 z"
               id="path66" />
            <path
               style="color:#000000;fill:#000000;fill-rule:evenodd;-inkscape-stroke:none"
               d="m -8.7871094,29.539062 v 4.308594 l 3.7265625,-2.154297 -0.3496093,-0.201172 z m 0.4667969,0.810547 2.3261719,1.345703 -2.3261719,1.34375 z"
               id="path67" />
          </g>
        </g>
      </g>
      <g
         id="path1-8-0-22-9-8">
        <path
           style="color:#000000;fill:#000000;stroke-linecap:square;-inkscape-stroke:none"
           d="m 92.984375,-46.806641 v 1 h 0.5 15.500005 v 36.3144535 0.5 h 1 v -0.5 -37.3144535 H 93.484375 Z"
           id="path64" />
        <g
           id="g61">
          <g
             id="path61">
            <path
               style="color:#000000;fill:#000000;fill-rule:evenodd;-inkscape-stroke:none"
               d="m 109.4849,-7.47312 -1.75,-3.0275 h 3.5 z"
               id="path62" />
            <path
               style="color:#000000;fill:#000000;fill-rule:evenodd;-inkscape-stroke:none"
               d="m 107.33008,-10.734375 2.1543,3.7265625 0.20312,-0.3476562 1.95117,-3.3789063 z m 0.80859,0.466797 h 2.69336 l -1.34765,2.3281249 z"
               id="path63" />
          </g>
        </g>
      </g>
      <g
         id="path1-8-0-22-9-8-4">
        <path
           style="color:#000000;fill:#000000;stroke-linecap:square;-inkscape-stroke:none"
           d="m 132.98437,3.1933594 v 1 h 0.5 25.5 v 17.9746096 0.5 h 1 v -0.5 -18.9746096 h -26.5 z"
           id="path60" />
        <g
           id="g57">
          <g
             id="path57">
            <path
               style="color:#000000;fill:#000000;fill-rule:evenodd;-inkscape-stroke:none"
               d="m 159.48491,24.18787 -1.75,-3.0275 h 3.5 z"
               id="path58" />
            <path
               style="color:#000000;fill:#000000;fill-rule:evenodd;-inkscape-stroke:none"
               d="m 157.33008,20.927734 2.15429,3.726563 0.20313,-0.34961 1.95117,-3.376953 z m 0.81054,0.466797 h 2.68946 l -1.34571,2.326172 z"
               id="path59" />
          </g>
        </g>
      </g>
      <g
         id="path1-8-0-22-9-8-4-0">
        <path
           style="color:#000000;fill:#000000;stroke-linecap:square;-inkscape-stroke:none"
           d="m 118.98438,17.193359 v 0.5 37.5 h -65.500005 -0.5 v 1 h 0.5 66.500005 v -38.5 -0.5 z"
           id="path56" />
        <g
           id="g53">
          <g
             id="path53">
            <path
               style="color:#000000;fill:#000000;fill-rule:evenodd;-inkscape-stroke:none"
               d="m 119.4849,15.67437 1.75,3.0275 h -3.5 z"
               id="path54" />
            <path
               style="color:#000000;fill:#000000;fill-rule:evenodd;-inkscape-stroke:none"
               d="m 119.48438,15.208984 -0.20118,0.347657 -1.95312,3.378906 h 4.30859 z m 0,0.931641 1.34765,2.328125 h -2.69336 z"
               id="path55" />
          </g>
        </g>
      </g>
      <g
         id="path1-8-0-22-9-8-4-0-2">
        <path
           style="color:#000000;fill:#000000;stroke-linecap:square;-inkscape-stroke:none"
           d="m 126.98438,17.257812 v 0.5 55.875 h -73.500005 -0.5 v 1 h 0.5 74.500005 v -56.875 -0.5 z"
           id="path52" />
        <g
           id="g49">
          <g
             id="path49">
            <path
               style="color:#000000;fill:#000000;fill-rule:evenodd;-inkscape-stroke:none"
               d="m 127.48491,15.7381 1.75,3.0275 h -3.5 z"
               id="path50" />
            <path
               style="color:#000000;fill:#000000;fill-rule:evenodd;-inkscape-stroke:none"
               d="m 127.48438,15.271484 -0.20118,0.34961 -1.95312,3.376953 h 4.30859 z m 0,0.933594 1.34765,2.328125 h -2.69336 z"
               id="path51" />
          </g>
        </g>
      </g>
      <g
         id="path1-8-0-3">
        <path
           style="color:#000000;fill:#000000;stroke-linecap:square;-inkscape-stroke:none"
           d="m 26.984375,-66.806641 v 1 h 0.5 10.814453 0.5 v -1 h -0.5 -10.814453 z"
           id="path48" />
        <g
           id="g45">
          <g
             id="path45">
            <path
               style="color:#000000;fill:#000000;fill-rule:evenodd;-inkscape-stroke:none"
               d="m 40.3179,-66.30612 -3.0275,1.75 v -3.5 z"
               id="path46" />
            <path
               style="color:#000000;fill:#000000;fill-rule:evenodd;-inkscape-stroke:none"
               d="m 37.056641,-68.460937 v 4.308593 l 3.726562,-2.154297 -0.347656,-0.201171 z m 0.466796,0.808593 2.328125,1.347657 -2.328125,1.345703 z"
               id="path47" />
          </g>
        </g>
      </g>
      <g
         id="path1-8-0-3-5">
        <path
           style="color:#000000;fill:#000000;stroke-linecap:square;-inkscape-stroke:none"
           d="m 89.125,-66.732422 v 1 h 0.5 12.78125 0.5 v -1 h -0.5 H 89.625 Z"
           id="path44" />
        <g
           id="g41">
          <g
             id="path41">
            <path
               style="color:#000000;fill:#000000;fill-rule:evenodd;-inkscape-stroke:none"
               d="m 104.42571,-66.23299 -3.0275,1.75 v -3.5 z"
               id="path42" />
            <path
               style="color:#000000;fill:#000000;fill-rule:evenodd;-inkscape-stroke:none"
               d="m 101.16406,-68.386719 v 4.308594 l 3.72852,-2.154297 -0.34961,-0.203125 z m 0.4668,0.806641 2.32812,1.345703 -2.32812,1.347656 z"
               id="path43" />
          </g>
        </g>
      </g>
      <g
         id="path1-8-0-3-5-8">
        <path
           style="color:#000000;fill:#000000;stroke-linecap:square;-inkscape-stroke:none"
           d="m 47.500865,-26.806641 v 1 h 0.5 8.331166 0.5 v -1 h -0.5 -8.331166 z"
           id="path40" />
        <g
           id="g37">
          <g
             id="path37">
            <path
               style="color:#000000;fill:#000000;fill-rule:evenodd;-inkscape-stroke:none"
               d="m 58.3519,-26.30612 -3.0275,1.75 v -3.5 z"
               id="path38" />
            <path
               style="color:#000000;fill:#000000;fill-rule:evenodd;-inkscape-stroke:none"
               d="m 55.091797,-28.460937 v 4.308593 l 3.726562,-2.154297 -0.349609,-0.201171 z m 0.466797,0.810546 2.326172,1.345704 -2.326172,1.34375 z"
               id="path39" />
          </g>
        </g>
      </g>
      <g
         id="path1-8-0-3-5-8-5">
        <path
           style="color:#000000;fill:#000000;stroke-linecap:square;-inkscape-stroke:none"
           d="m 44.984375,4.1933594 v 1 h 0.5 36 0.5 v -1 h -0.5 -36 z"
           id="path36" />
        <g
           id="g33">
          <g
             id="path33">
            <path
               style="color:#000000;fill:#000000;fill-rule:evenodd;-inkscape-stroke:none"
               d="m 83.504397,4.69387 -3.0275,1.75 v -3.5 z"
               id="path34" />
            <path
               style="color:#000000;fill:#000000;fill-rule:evenodd;-inkscape-stroke:none"
               d="M 80.244141,2.5390625 V 6.8476562 L 83.970703,4.6933594 83.621094,4.4921875 Z m 0.466796,0.8105469 2.326172,1.3457031 -2.326172,1.34375 z"
               id="path35" />
          </g>
        </g>
      </g>
      <g
         id="path1-8-0-3-5-6">
        <path
           style="color:#000000;fill:#000000;stroke-linecap:square;-inkscape-stroke:none"
           d="m 52.984375,29.193359 v 1 h 0.5 8 0.5 v -1 h -0.5 -8 z"
           id="path32" />
        <g
           id="g29">
          <g
             id="path29">
            <path
               style="color:#000000;fill:#000000;fill-rule:evenodd;-inkscape-stroke:none"
               d="m 63.504397,29.69387 -3.0275,1.75 v -3.5 z"
               id="path30" />
            <path
               style="color:#000000;fill:#000000;fill-rule:evenodd;-inkscape-stroke:none"
               d="m 60.244141,27.539062 v 4.308594 l 3.726562,-2.154297 -0.349609,-0.201172 z m 0.466796,0.810547 2.326172,1.345703 -2.326172,1.34375 z"
               id="path31" />
          </g>
        </g>
      </g>
      <g
         id="path1-8-0-3-6">
        <path
           style="color:#000000;fill:#000000;stroke-linecap:square;-inkscape-stroke:none"
           d="m 68.078125,-56.806641 v 0.5 3.134766 0.5 h 1 v -0.5 -3.134766 -0.5 z"
           id="path28" />
        <g
           id="g25">
          <g
             id="path25">
            <path
               style="color:#000000;fill:#000000;fill-rule:evenodd;-inkscape-stroke:none"
               d="m 68.577777,-51.1522 -1.75,-3.0275 h 3.5 z"
               id="path26" />
            <path
               style="color:#000000;fill:#000000;fill-rule:evenodd;-inkscape-stroke:none"
               d="m 66.423828,-54.412109 2.154297,3.726562 0.201172,-0.349609 1.953125,-3.376953 z m 0.806641,0.464843 h 2.693359 l -1.345703,2.328125 z"
               id="path27" />
          </g>
        </g>
      </g>
    </g>
  </g>
</svg>
