<?xml version="1.0" encoding="UTF-8" standalone="no"?>
<!-- Created with Inkscape (http://www.inkscape.org/) -->

<svg
   width="22.902157mm"
   height="28.142397mm"
   viewBox="0 0 22.902157 28.142397"
   version="1.1"
   id="svg5"
   inkscape:version="1.3.2 (091e20e, 2023-11-25, custom)"
   sodipodi:docname="slp_app.svg"
   inkscape:export-filename="slp_app.png"
   inkscape:export-xdpi="96"
   inkscape:export-ydpi="96"
   xml:space="preserve"
   xmlns:inkscape="http://www.inkscape.org/namespaces/inkscape"
   xmlns:sodipodi="http://sodipodi.sourceforge.net/DTD/sodipodi-0.dtd"
   xmlns="http://www.w3.org/2000/svg"
   xmlns:svg="http://www.w3.org/2000/svg"><sodipodi:namedview
     id="namedview7"
     pagecolor="#ffffff"
     bordercolor="#000000"
     borderopacity="0.25"
     inkscape:showpageshadow="2"
     inkscape:pageopacity="0.0"
     inkscape:pagecheckerboard="0"
     inkscape:deskcolor="#d1d1d1"
     inkscape:document-units="mm"
     showgrid="false"
     inkscape:zoom="16"
     inkscape:cx="-28.875"
     inkscape:cy="26.5625"
     inkscape:window-width="3840"
     inkscape:window-height="2054"
     inkscape:window-x="-11"
     inkscape:window-y="-11"
     inkscape:window-maximized="1"
     inkscape:current-layer="layer1" /><defs
     id="defs2" /><g
     inkscape:label="Layer 1"
     inkscape:groupmode="layer"
     id="layer1"
     transform="translate(-60.412047,-52.635873)"><path
       d="M 67.034443,65.433535 65.56353,66.21914 h -3.593718 q -0.601741,0 -0.986184,-0.417874 -0.384443,-0.434589 -0.31757,-1.036331 l 0.26742,-2.540675 h 1.888787 l -0.217305,2.106089 h 1.036327 l 0.401162,-3.777585 H 61.117341 L 61.769226,54.3348 q 0.06685,-0.601738 0.534875,-1.019612 0.468021,-0.434593 1.069759,-0.434593 h 1.872075 q 0.601741,0 0.969469,0.434593 0.384446,0.417874 0.33431,1.019612 l -0.28416,2.757967 h -1.872061 l 0.23401,-2.172945 h -0.986177 l -0.367731,3.593718 h 2.841544 l -0.618453,5.80009 h 0.217305 l 1.521039,-0.785601 z"
       style="font-size:5.64444px;font-family:Hotrod;-inkscape-font-specification:Hotrod;fill:#0f8721;fill-opacity:1;stroke:#000000;stroke-width:0.489443;stroke-linejoin:round;stroke-dasharray:none;stroke-dashoffset:6.50079"
       id="path1056" /><path
       d="m 71.112905,65.433535 -1.470917,0.785605 h -2.99198 l 1.404058,-13.305114 h 1.922222 L 68.772809,64.31363 h 1.019615 l 1.52106,-0.785601 z"
       style="font-size:5.64444px;font-family:Hotrod;-inkscape-font-specification:Hotrod;fill:#0f8721;fill-opacity:1;stroke:#000000;stroke-width:0.489443;stroke-linejoin:round;stroke-dasharray:none;stroke-dashoffset:6.50079"
       id="path1058" /><path
       d="m 71.109989,79.747947 -1.470917,0.785602 H 66.06207 c -0.401162,0 -0.729887,-0.139314 -0.986184,-0.417874 -0.256319,-0.289729 -0.362159,-0.635166 -0.317571,-1.036328 l 0.484733,-4.646757 c 0.111437,-1.069762 0.651874,-1.604638 1.621353,-1.604638 h 1.487633 l 0.384443,-3.593718 h -1.053043 l -0.250751,2.172945 h -1.888791 l 0.31757,-2.75797 c 0.04458,-0.401159 0.222874,-0.741031 0.534879,-1.019612 0.312002,-0.289729 0.6686,-0.43459 1.069759,-0.43459 h 1.872075 c 0.401162,0 0.724315,0.144882 0.969465,0.43459 0.256319,0.278557 0.362163,0.618453 0.317606,1.019612 l -1.036331,9.978837 h 0.200565 l 1.521064,-0.785605 z m -3.460001,-1.103189 0.401162,-3.777582 h -0.986184 l -0.401162,3.777582 z"
       style="font-size:5.64444px;font-family:Hotrod;-inkscape-font-specification:Hotrod;fill:#0f8721;fill-opacity:1;stroke:#000000;stroke-width:0.489443;stroke-linejoin:round;stroke-dasharray:none;stroke-dashoffset:6.50079"
       id="path1060"
       sodipodi:nodetypes="ccscccscccccccssccccccccccc" /><path
       d="m 76.667582,70.155543 -0.292389,3.056852 c -0.07799,0.802317 -0.640737,1.353912 -1.688212,1.654781 h -1.470917 l -0.627802,5.65419 h -1.862726 l 1.404058,-13.326359 h 3.326277 c 0.401158,0 0.74103,0.150451 1.019612,0.451305 0.144882,0.150451 0.155486,0.210461 0.216773,0.385951 l 1.655309,-0.837256 -0.167474,1.591008 -1.437791,0.718268 c -0.02944,0.254829 -0.05246,0.45068 -0.07473,0.65126 z m -2.214593,2.672409 0.384446,-3.593718 h -1.036327 l -0.367731,3.593718 z"
       style="font-size:5.64444px;font-family:Hotrod;-inkscape-font-specification:Hotrod;fill:#0f8721;fill-opacity:1;stroke:#000000;stroke-width:0.489443;stroke-linejoin:round;stroke-dasharray:none;stroke-dashoffset:6.50079"
       id="path1062"
       sodipodi:nodetypes="cccccccscccccccccccc" /><path
       d="m 78.347572,67.195007 h 3.326277 c 0.401158,0 0.74103,0.150451 1.019612,0.451305 0.289728,0.300866 0.412305,0.651885 0.367731,1.053043 l -0.468017,4.51304 c -0.07799,0.802317 -0.640741,1.353912 -1.688216,1.654781 h -1.470917 l -0.582472,5.65419 h -1.908056 l 1.404058,-13.326359 m 2.323381,5.632945 0.384443,-3.593718 h -1.036328 l -0.367731,3.593718 z"
       style="font-size:5.64444px;font-family:Hotrod;-inkscape-font-specification:Hotrod;fill:#0f8721;fill-opacity:1;stroke:#000000;stroke-width:0.489443;stroke-linejoin:round;stroke-dasharray:none;stroke-dashoffset:6.50079"
       id="path1064"
       sodipodi:nodetypes="csccccccccccccc"
       inkscape:export-filename="sl_app_large.svg"
       inkscape:export-xdpi="96"
       inkscape:export-ydpi="96" /></g></svg>
