<?xml version="1.0" encoding="UTF-8" standalone="no"?>
<!-- Created with Inkscape (http://www.inkscape.org/) -->

<svg
   width="30mm"
   height="30mm"
   viewBox="0 0 30 30"
   version="1.1"
   id="svg5"
   inkscape:version="1.3 (0e150ed6c4, 2023-07-21)"
   sodipodi:docname="slp_app_2_large.svg"
   inkscape:export-filename="slp_app_2.png"
   inkscape:export-xdpi="300"
   inkscape:export-ydpi="300"
   xml:space="preserve"
   xmlns:inkscape="http://www.inkscape.org/namespaces/inkscape"
   xmlns:sodipodi="http://sodipodi.sourceforge.net/DTD/sodipodi-0.dtd"
   xmlns="http://www.w3.org/2000/svg"
   xmlns:svg="http://www.w3.org/2000/svg"><sodipodi:namedview
     id="namedview7"
     pagecolor="#ffffff"
     bordercolor="#000000"
     borderopacity="0.25"
     inkscape:showpageshadow="2"
     inkscape:pageopacity="0.0"
     inkscape:pagecheckerboard="0"
     inkscape:deskcolor="#d1d1d1"
     inkscape:document-units="mm"
     showgrid="false"
     inkscape:zoom="2.8284271"
     inkscape:cx="62.048621"
     inkscape:cy="85.029591"
     inkscape:window-width="2329"
     inkscape:window-height="1401"
     inkscape:window-x="0"
     inkscape:window-y="0"
     inkscape:window-maximized="0"
     inkscape:current-layer="layer1" /><defs
     id="defs2" /><g
     inkscape:label="Layer 1"
     inkscape:groupmode="layer"
     id="layer1"
     transform="translate(-58.978514,-51.835222)"><path
       style="fill:#1d52b1;fill-opacity:1;stroke:#e5b603;stroke-width:0.2;stroke-dasharray:none;stroke-opacity:1"
       d="m 72.802804,81.091392 c -0.617879,-0.108357 -0.985943,-0.375282 -1.175038,-0.852089 -0.09138,-0.230423 -0.09154,-0.629379 -4.09e-4,-1.070444 0.266967,-1.292134 -0.04911,-2.613065 -0.826594,-3.454423 -0.509744,-0.551631 -0.573839,-0.778236 -0.641951,-2.269551 -0.04819,-1.054566 -0.07852,-1.234128 -0.27073,-1.601446 -0.101846,-0.194664 -0.261078,-0.368683 -0.650137,-0.71067 l -0.205427,-0.180562 -0.0193,-0.63197 c -0.03206,-1.04834 -0.125566,-1.471424 -0.391126,-1.771042 -0.310677,-0.350512 -0.463967,-0.704996 -0.463921,-1.072818 3.3e-5,-0.273707 0.05176,-0.394454 0.277011,-0.647016 0.191621,-0.214817 0.37417,-0.552481 0.49898,-0.922964 0.171239,-0.508284 0.294416,-1.418694 0.271809,-2.009094 -0.02192,-0.57129 -0.05833,-0.596416 -0.920572,-0.634587 -1.016804,-0.04502 -1.655196,-0.137802 -2.610529,-0.379483 -0.867293,-0.219397 -1.398398,-0.402551 -1.959824,-0.675832 -1.905258,-0.92742 -3.102311,-2.700088 -3.412327,-5.053184 -0.06246,-0.474105 -0.05434,-1.454303 0.01472,-1.790577 0.27014,-1.312952 1.151681,-2.933321 1.596234,-2.934031 0.133582,-2.13e-4 0.14163,0.09367 0.05627,0.656203 -0.04332,0.285386 -0.09488,0.704767 -0.114638,0.931918 -0.039,0.448953 -0.02094,1.453446 0.03452,1.932737 0.150561,1.298098 0.552007,2.030246 1.4115,2.574204 0.426869,0.270141 0.69858,0.388807 1.892496,0.826391 0.307143,0.112578 0.722604,0.274099 0.923242,0.358989 0.95811,0.40527 1.4891,0.529645 2.582533,0.604906 0.721813,0.0497 1.009889,0.113985 1.219101,0.272071 0.07041,0.05323 0.07257,0.05235 0.198622,-0.08029 0.428944,-0.451387 2.008248,-0.764445 3.856445,-0.764445 1.859171,0 3.426739,0.312246 3.860845,0.769078 l 0.131848,0.13875 0.06681,-0.05892 c 0.182035,-0.160606 0.386465,-0.205231 1.276748,-0.278745 0.984225,-0.08127 1.649955,-0.227511 2.27862,-0.500465 0.287186,-0.124716 0.985769,-0.396911 1.416872,-0.552102 1.81749,-0.654276 2.420443,-1.121854 2.812296,-2.180873 0.311494,-0.84183 0.389638,-2.52987 0.179025,-3.867048 -0.09521,-0.604586 -0.09975,-0.6558 -0.06373,-0.721106 0.148468,-0.269061 0.675852,0.302694 1.116773,1.210686 0.569579,1.172954 0.73872,2.088576 0.607249,3.287184 -0.269257,2.454762 -1.468159,4.270116 -3.458078,5.23616 -0.530015,0.257316 -1.071644,0.442459 -1.926207,0.658461 -0.96809,0.244687 -1.581257,0.333669 -2.615905,0.37957 -0.856137,0.03798 -0.893355,0.06376 -0.915197,0.634414 -0.02192,0.571201 0.09295,1.446906 0.258854,1.974572 0.111694,0.355207 0.316729,0.738684 0.511906,0.957486 0.225286,0.252539 0.277011,0.373312 0.277044,0.647016 4.2e-5,0.353512 -0.156614,0.728463 -0.434443,1.03984 -0.163322,0.183016 -0.234349,0.323174 -0.29108,0.574264 -0.07849,0.347329 -0.108651,0.642573 -0.129197,1.265018 l -0.01963,0.596708 -0.205428,0.180562 c -0.389065,0.341974 -0.548274,0.516003 -0.650137,0.71067 -0.1927,0.36828 -0.222505,0.54563 -0.271351,1.615772 -0.06638,1.453927 -0.140943,1.717531 -0.63526,2.246218 -0.390171,0.41729 -0.621896,0.849884 -0.786277,1.467871 -0.164303,0.617662 -0.182853,1.327458 -0.05169,1.979456 0.128151,0.637175 0.114934,0.904521 -0.06203,1.254831 -0.113003,0.223716 -0.311266,0.404252 -0.578651,0.526874 -0.374569,0.171794 -1.149546,0.268145 -1.263946,0.157203 -0.07083,-0.06871 -0.06049,-0.212036 0.04433,-0.614774 0.08748,-0.336162 0.118107,-0.654027 0.07381,-0.766042 -0.04034,-0.10201 -0.181381,-0.136788 -0.554683,-0.136788 -0.420434,0 -0.518718,0.03327 -0.57343,0.194075 -0.04348,0.127725 -0.02323,0.281722 0.09573,0.734565 0.151085,0.574385 0.127987,0.637888 -0.230325,0.633543 -0.122491,-0.0015 -0.330859,-0.02159 -0.463041,-0.04485 z m 0.0092,-1.494751 c 0.05696,-0.03723 0.137574,-0.131815 0.179189,-0.210204 0.07044,-0.132763 0.07724,-0.187106 0.09972,-0.797485 0.02454,-0.661843 0.07273,-1.032718 0.190574,-1.46212 0.08016,-0.292093 0.071,-0.314962 -0.225613,-0.562564 -0.259999,-0.217042 -0.354949,-0.320164 -0.399456,-0.433714 -0.01799,-0.04623 -0.03173,-0.351003 -0.03173,-0.705925 0,-0.698168 -0.03321,-0.886357 -0.175492,-0.994946 -0.09727,-0.0742 -0.312967,-0.0829 -0.442671,-0.01799 -0.219332,0.110026 -0.249301,0.537075 -0.08176,1.165675 0.170486,0.639628 0.254142,1.448961 0.293893,2.842343 0.02715,0.952788 0.03926,1.01721 0.218056,1.163149 0.121705,0.09933 0.237914,0.10358 0.375461,0.01374 z m 2.744246,-0.03141 c 0.05627,-0.05457 0.118826,-0.152753 0.139045,-0.218186 0.02127,-0.06887 0.04806,-0.48659 0.0636,-0.99157 0.01472,-0.479933 0.03465,-0.953911 0.04417,-1.053281 0.0095,-0.09939 0.03942,-0.410072 0.06645,-0.690447 0.03399,-0.352619 0.08212,-0.635581 0.156091,-0.917859 0.234545,-0.89488 0.15115,-1.325947 -0.256498,-1.325947 -0.182395,0 -0.244589,0.03576 -0.32873,0.189102 -0.06491,0.11827 -0.0707,0.175033 -0.08542,0.834095 -0.01309,0.588977 -0.02454,0.722824 -0.06854,0.800624 -0.05133,0.09092 -0.341652,0.366497 -0.476153,0.451979 -0.03681,0.02356 -0.09164,0.08706 -0.121837,0.141434 -0.05297,0.09543 -0.05264,0.107899 0.0095,0.353051 0.124421,0.490817 0.164564,0.800839 0.187466,1.447069 0.02159,0.612621 0.02781,0.659916 0.100636,0.797483 0.149351,0.281526 0.389016,0.358194 0.570204,0.182427 z"
       id="path1" /><text
       xml:space="preserve"
       style="font-style:normal;font-variant:normal;font-weight:normal;font-stretch:normal;font-size:8.08387px;font-family:Stencil;-inkscape-font-specification:Stencil;text-align:center;text-anchor:middle;fill:#000000;fill-opacity:1;stroke:none;stroke-width:0.2;stroke-linecap:square;stroke-dasharray:none;stroke-opacity:1"
       x="73.869965"
       y="57.913918"
       id="text1"><tspan
         sodipodi:role="line"
         id="tspan1"
         style="font-style:normal;font-variant:normal;font-weight:normal;font-stretch:normal;font-family:Stencil;-inkscape-font-specification:Stencil;text-align:center;text-anchor:middle;fill:#000000;stroke:none;stroke-width:0.2"
         x="73.869965"
         y="57.913918"
         dy="3.1735063">MILK</tspan><tspan
         sodipodi:role="line"
         style="font-style:normal;font-variant:normal;font-weight:normal;font-stretch:normal;font-family:Stencil;-inkscape-font-specification:Stencil;text-align:center;text-anchor:middle;fill:#000000;stroke:none;stroke-width:0.2"
         x="73.869965"
         y="68.018753"
         id="tspan2">DEALER</tspan></text></g></svg>
