<?xml version="1.0" encoding="UTF-8" standalone="no"?>
<!-- Created with Inkscape (http://www.inkscape.org/) -->

<svg
   width="9.5mm"
   height="9.5mm"
   viewBox="0 0 9.5 9.5"
   version="1.1"
   id="svg5"
   inkscape:version="1.3.2 (091e20e, 2023-11-25, custom)"
   sodipodi:docname="slp_app.svg"
   inkscape:export-filename="slp_app.png"
   inkscape:export-xdpi="96"
   inkscape:export-ydpi="96"
   xml:space="preserve"
   xmlns:inkscape="http://www.inkscape.org/namespaces/inkscape"
   xmlns:sodipodi="http://sodipodi.sourceforge.net/DTD/sodipodi-0.dtd"
   xmlns="http://www.w3.org/2000/svg"
   xmlns:svg="http://www.w3.org/2000/svg"><sodipodi:namedview
     id="namedview7"
     pagecolor="#ffffff"
     bordercolor="#000000"
     borderopacity="0.25"
     inkscape:showpageshadow="2"
     inkscape:pageopacity="0.0"
     inkscape:pagecheckerboard="0"
     inkscape:deskcolor="#d1d1d1"
     inkscape:document-units="mm"
     showgrid="false"
     inkscape:zoom="16"
     inkscape:cx="-28.875"
     inkscape:cy="26.5625"
     inkscape:window-width="3840"
     inkscape:window-height="2054"
     inkscape:window-x="-11"
     inkscape:window-y="-11"
     inkscape:window-maximized="1"
     inkscape:current-layer="layer1" /><defs
     id="defs2" /><g
     inkscape:label="Layer 1"
     inkscape:groupmode="layer"
     id="layer1"
     transform="translate(-58.978514,-51.835222)"><path
       d="m 62.279254,56.244218 -0.414729,0.221504 h -1.013261 q -0.169663,0 -0.278058,-0.117821 -0.108395,-0.122534 -0.08954,-0.292197 l 0.0754,-0.716352 h 0.53255 l -0.06127,0.593819 h 0.292196 l 0.113109,-1.065103 h -0.824744 l 0.183801,-1.753176 q 0.01885,-0.169662 0.15081,-0.287483 0.13196,-0.122535 0.301622,-0.122535 h 0.527838 q 0.169663,0 0.273345,0.122535 0.108396,0.117821 0.09426,0.287483 l -0.08012,0.777618 h -0.527834 l 0.06598,-0.612669 h -0.278056 l -0.103683,1.013261 h 0.801183 l -0.174375,1.635355 h 0.06127 l 0.428862,-0.221503 z"
       style="font-size:5.64444px;font-family:Hotrod;-inkscape-font-specification:Hotrod;fill:#0f8721;fill-opacity:1;stroke:#000000;stroke-width:0.138;stroke-linejoin:round;stroke-dasharray:none;stroke-dashoffset:6.50079"
       id="path1056" /><path
       d="m 63.42919,56.244218 -0.41473,0.221504 H 62.170861 L 62.56674,52.7143 h 0.541977 l -0.339325,3.214157 h 0.287484 l 0.428868,-0.221503 z"
       style="font-size:5.64444px;font-family:Hotrod;-inkscape-font-specification:Hotrod;fill:#0f8721;fill-opacity:1;stroke:#000000;stroke-width:0.138;stroke-linejoin:round;stroke-dasharray:none;stroke-dashoffset:6.50079"
       id="path1058" /><path
       d="m 63.428368,60.280215 -0.41473,0.221503 H 62.00509 c -0.113109,0 -0.205794,-0.03928 -0.278058,-0.117821 -0.07227,-0.08169 -0.102112,-0.179087 -0.08954,-0.292196 l 0.136672,-1.310169 c 0.03142,-0.301623 0.183798,-0.452433 0.457146,-0.452433 h 0.419443 l 0.108395,-1.013261 h -0.296909 l -0.0707,0.612669 h -0.532551 l 0.08954,-0.777619 c 0.01257,-0.113108 0.06284,-0.208936 0.150811,-0.287483 0.08797,-0.08169 0.188514,-0.122534 0.301622,-0.122534 h 0.527838 c 0.113109,0 0.204223,0.04085 0.273344,0.122534 0.07227,0.07854 0.102113,0.174375 0.08955,0.287483 l -0.292197,2.813567 h 0.05655 l 0.428869,-0.221504 z m -0.975559,-0.311048 0.113109,-1.065102 H 62.28786 l -0.113109,1.065102 z"
       style="font-size:5.64444px;font-family:Hotrod;-inkscape-font-specification:Hotrod;fill:#0f8721;fill-opacity:1;stroke:#000000;stroke-width:0.138;stroke-linejoin:round;stroke-dasharray:none;stroke-dashoffset:6.50079"
       id="path1060"
       sodipodi:nodetypes="ccscccscccccccssccccccccccc" /><path
       d="m 64.99535,57.575604 -0.08244,0.86189 c -0.02199,0.226216 -0.180658,0.38174 -0.475997,0.466571 h -0.41473 l -0.177011,1.594218 H 63.31997 l 0.395879,-3.757412 h 0.937855 c 0.113108,0 0.208936,0.04242 0.287483,0.127247 0.04085,0.04242 0.04384,0.05934 0.06112,0.10882 l 0.46672,-0.236067 -0.04722,0.44859 -0.40539,0.202518 c -0.0083,0.07185 -0.01479,0.127071 -0.02107,0.183625 z m -0.624412,0.753495 0.108396,-1.013261 h -0.292196 l -0.103683,1.013261 z"
       style="font-size:5.64444px;font-family:Hotrod;-inkscape-font-specification:Hotrod;fill:#0f8721;fill-opacity:1;stroke:#000000;stroke-width:0.138;stroke-linejoin:round;stroke-dasharray:none;stroke-dashoffset:6.50079"
       id="path1062"
       sodipodi:nodetypes="cccccccscccccccccccc" /><path
       d="m 65.469029,56.740871 h 0.937855 c 0.113108,0 0.208936,0.04242 0.287483,0.127247 0.08169,0.08483 0.116251,0.183801 0.103683,0.296909 l -0.131959,1.272467 c -0.02199,0.226216 -0.180659,0.38174 -0.475998,0.466571 h -0.41473 l -0.16423,1.594218 H 65.07315 l 0.395879,-3.757412 m 0.655085,1.588228 0.108395,-1.013261 h -0.292196 l -0.103683,1.013261 z"
       style="font-size:5.64444px;font-family:Hotrod;-inkscape-font-specification:Hotrod;fill:#0f8721;fill-opacity:1;stroke:#000000;stroke-width:0.138;stroke-linejoin:round;stroke-dasharray:none;stroke-dashoffset:6.50079"
       id="path1064"
       sodipodi:nodetypes="csccccccccccccc" /></g></svg>
