<?xml version="1.0" encoding="UTF-8" standalone="no"?>
<!-- Created with Inkscape (http://www.inkscape.org/) -->

<svg
   width="9.5mm"
   height="9.5mm"
   viewBox="0 0 9.5 9.5"
   version="1.1"
   id="svg5"
   inkscape:version="1.3 (0e150ed6c4, 2023-07-21)"
   sodipodi:docname="slp_app_2.svg"
   inkscape:export-filename="slp_app_2.png"
   inkscape:export-xdpi="300"
   inkscape:export-ydpi="300"
   xml:space="preserve"
   xmlns:inkscape="http://www.inkscape.org/namespaces/inkscape"
   xmlns:sodipodi="http://sodipodi.sourceforge.net/DTD/sodipodi-0.dtd"
   xmlns="http://www.w3.org/2000/svg"
   xmlns:svg="http://www.w3.org/2000/svg"><sodipodi:namedview
     id="namedview7"
     pagecolor="#ffffff"
     bordercolor="#000000"
     borderopacity="0.25"
     inkscape:showpageshadow="2"
     inkscape:pageopacity="0.0"
     inkscape:pagecheckerboard="0"
     inkscape:deskcolor="#d1d1d1"
     inkscape:document-units="mm"
     showgrid="false"
     inkscape:zoom="2.8284271"
     inkscape:cx="-165.10943"
     inkscape:cy="85.02959"
     inkscape:window-width="2329"
     inkscape:window-height="1417"
     inkscape:window-x="-8"
     inkscape:window-y="0"
     inkscape:window-maximized="0"
     inkscape:current-layer="layer1" /><defs
     id="defs2" /><g
     inkscape:label="Layer 1"
     inkscape:groupmode="layer"
     id="layer1"
     transform="translate(-58.978514,-51.835222)"><path
       style="fill:#1d52b1;fill-opacity:1;stroke:#e5b603;stroke-width:0.2;stroke-dasharray:none;stroke-opacity:1"
       d="m 63.370068,60.959104 c -0.188858,-0.03312 -0.301359,-0.114707 -0.359157,-0.260446 -0.02793,-0.07043 -0.02798,-0.192373 -1.25e-4,-0.327187 0.0816,-0.394948 -0.01501,-0.798698 -0.252653,-1.055864 -0.155806,-0.168609 -0.175397,-0.237872 -0.196216,-0.693701 -0.01473,-0.322334 -0.024,-0.377218 -0.08275,-0.489491 -0.03113,-0.0595 -0.0798,-0.11269 -0.198718,-0.21722 l -0.06279,-0.05519 -0.0059,-0.193165 c -0.0098,-0.320431 -0.03838,-0.449749 -0.11955,-0.541329 -0.09496,-0.107136 -0.141814,-0.215486 -0.1418,-0.327913 10e-6,-0.08366 0.01582,-0.120567 0.08467,-0.197764 0.05857,-0.06566 0.114367,-0.168869 0.152516,-0.282109 0.05234,-0.15536 0.08999,-0.433632 0.08308,-0.614091 -0.0067,-0.174618 -0.01783,-0.182298 -0.281378,-0.193965 -0.310792,-0.01376 -0.50592,-0.04212 -0.797923,-0.115991 -0.265093,-0.06706 -0.427428,-0.123042 -0.599031,-0.206572 -0.582353,-0.283471 -0.948239,-0.825297 -1.042997,-1.544534 -0.01909,-0.144913 -0.01661,-0.444516 0.0045,-0.5473 0.08257,-0.401311 0.352018,-0.896586 0.487898,-0.896803 0.04083,-6.5e-5 0.04329,0.02863 0.0172,0.200572 -0.01324,0.08723 -0.029,0.215416 -0.03504,0.284846 -0.01192,0.137225 -0.0064,0.444254 0.01055,0.590752 0.04602,0.396771 0.168724,0.620556 0.431433,0.78682 0.130475,0.08257 0.213525,0.118841 0.578452,0.252591 0.09388,0.03441 0.220868,0.08378 0.282194,0.109727 0.292852,0.123873 0.455152,0.161889 0.789366,0.184893 0.220626,0.01519 0.308678,0.03484 0.372625,0.08316 0.02152,0.01627 0.02218,0.016 0.06071,-0.02454 0.131109,-0.137969 0.613832,-0.233657 1.178744,-0.233657 0.568266,0 1.047402,0.09544 1.180089,0.235073 l 0.0403,0.04241 0.02042,-0.01801 c 0.05564,-0.04909 0.118125,-0.06273 0.390245,-0.0852 0.300834,-0.02484 0.504318,-0.06954 0.696473,-0.15297 0.08778,-0.03812 0.301306,-0.121318 0.433075,-0.168753 0.555526,-0.199983 0.739822,-0.342901 0.859594,-0.666596 0.09521,-0.25731 0.119095,-0.773269 0.05472,-1.181985 -0.0291,-0.184795 -0.03049,-0.200449 -0.01948,-0.22041 0.04538,-0.08224 0.206578,0.09252 0.341348,0.370053 0.174095,0.35852 0.225794,0.638385 0.185609,1.004746 -0.0823,0.750312 -0.448751,1.305185 -1.056981,1.600462 -0.162002,0.07865 -0.327554,0.13524 -0.588756,0.201262 -0.295902,0.07479 -0.48332,0.101988 -0.799566,0.116018 -0.261683,0.01161 -0.273059,0.01949 -0.279735,0.193912 -0.0067,0.174591 0.02841,0.442255 0.07912,0.603539 0.03414,0.108571 0.09681,0.225783 0.156467,0.292661 0.06886,0.07719 0.08467,0.114105 0.08468,0.197764 1.3e-5,0.108053 -0.04787,0.222659 -0.13279,0.317833 -0.04992,0.05594 -0.07163,0.09878 -0.08897,0.175527 -0.02399,0.106163 -0.03321,0.196406 -0.03949,0.38666 l -0.006,0.182387 -0.06279,0.05519 c -0.11892,0.104526 -0.167583,0.157719 -0.198718,0.21722 -0.0589,0.112567 -0.06801,0.166775 -0.08294,0.49387 -0.02029,0.444401 -0.04308,0.524973 -0.194171,0.686569 -0.119258,0.127547 -0.190086,0.259772 -0.24033,0.448663 -0.05022,0.188792 -0.05589,0.405745 -0.0158,0.605032 0.03917,0.194756 0.03513,0.276472 -0.01896,0.383546 -0.03454,0.06838 -0.09514,0.123562 -0.176868,0.161042 -0.114489,0.05251 -0.351365,0.08196 -0.386332,0.04805 -0.02165,-0.021 -0.01849,-0.06481 0.01355,-0.187909 0.02674,-0.10275 0.0361,-0.199907 0.02256,-0.234145 -0.01233,-0.03118 -0.05544,-0.04181 -0.169542,-0.04181 -0.128508,0 -0.158549,0.01017 -0.175272,0.05932 -0.01329,0.03904 -0.0071,0.08611 0.02926,0.224524 0.04618,0.175564 0.03912,0.194974 -0.0704,0.193646 -0.03744,-4.61e-4 -0.101129,-0.0066 -0.141531,-0.01371 z m 0.0028,-0.456879 c 0.01741,-0.01138 0.04205,-0.04029 0.05477,-0.06425 0.02153,-0.04058 0.02361,-0.05719 0.03048,-0.243756 0.0075,-0.202296 0.02223,-0.315656 0.05825,-0.446905 0.0245,-0.08928 0.0217,-0.09627 -0.06896,-0.171951 -0.07947,-0.06634 -0.108492,-0.09786 -0.122096,-0.132567 -0.0055,-0.01413 -0.0097,-0.107286 -0.0097,-0.21577 0,-0.213399 -0.01015,-0.27092 -0.05364,-0.304111 -0.02973,-0.02268 -0.09566,-0.02534 -0.135305,-0.0055 -0.06704,0.03363 -0.0762,0.16416 -0.02499,0.356295 0.05211,0.195506 0.07768,0.442883 0.08983,0.868778 0.0083,0.291225 0.012,0.310916 0.06665,0.355523 0.0372,0.03036 0.07272,0.03166 0.114762,0.0042 z m 0.838794,-0.0096 c 0.0172,-0.01668 0.03632,-0.04669 0.0425,-0.06669 0.0065,-0.02105 0.01469,-0.148729 0.01944,-0.303079 0.0045,-0.146694 0.01059,-0.291568 0.0135,-0.321941 0.0029,-0.03038 0.01205,-0.125341 0.02031,-0.211039 0.01039,-0.10778 0.0251,-0.194269 0.04771,-0.280549 0.07169,-0.273525 0.0462,-0.405283 -0.0784,-0.405283 -0.05575,0 -0.07476,0.01093 -0.100478,0.0578 -0.01984,0.03615 -0.02161,0.0535 -0.02611,0.254946 -0.004,0.180024 -0.0075,0.220935 -0.02095,0.244715 -0.01569,0.02779 -0.104428,0.112022 -0.145539,0.13815 -0.01125,0.0072 -0.02801,0.02661 -0.03724,0.04323 -0.01619,0.02917 -0.01609,0.03298 0.0029,0.107912 0.03803,0.150021 0.0503,0.244781 0.0573,0.442305 0.0066,0.187251 0.0085,0.201707 0.03076,0.243755 0.04565,0.08605 0.118905,0.109484 0.174286,0.05576 z"
       id="path1" /><text
       xml:space="preserve"
       style="font-style:normal;font-variant:normal;font-weight:normal;font-stretch:normal;font-size:2.47088px;font-family:Stencil;-inkscape-font-specification:Stencil;text-align:center;text-anchor:middle;fill:#000000;fill-opacity:1;stroke:none;stroke-width:0.2;stroke-linecap:square;stroke-dasharray:none;stroke-opacity:1"
       x="63.695335"
       y="53.874779"
       id="text1"><tspan
         sodipodi:role="line"
         id="tspan1"
         style="font-style:normal;font-variant:normal;font-weight:normal;font-stretch:normal;font-family:Stencil;-inkscape-font-specification:Stencil;text-align:center;text-anchor:middle;fill:#000000;stroke:none;stroke-width:0.2"
         x="63.695335"
         y="53.874779"
         dy="0.97000003">MILK</tspan><tspan
         sodipodi:role="line"
         style="font-style:normal;font-variant:normal;font-weight:normal;font-stretch:normal;font-family:Stencil;-inkscape-font-specification:Stencil;text-align:center;text-anchor:middle;fill:#000000;stroke:none;stroke-width:0.2"
         x="63.695335"
         y="56.963379"
         id="tspan2">DEALER</tspan></text></g></svg>
