<?xml version="1.0" encoding="UTF-8" standalone="no"?>
<svg
   id="_àð_1"
   data-name="˜àð_1"
   viewBox="0 0 778.73783 154.51001"
   version="1.1"
   sodipodi:docname="vehicles.svg"
   width="778.73779"
   height="154.51001"
   inkscape:version="1.3 (0e150ed6c4, 2023-07-21)"
   xmlns:inkscape="http://www.inkscape.org/namespaces/inkscape"
   xmlns:sodipodi="http://sodipodi.sourceforge.net/DTD/sodipodi-0.dtd"
   xmlns="http://www.w3.org/2000/svg"
   xmlns:svg="http://www.w3.org/2000/svg">
  <sodipodi:namedview
     id="namedview21"
     pagecolor="#ffffff"
     bordercolor="#000000"
     borderopacity="0.25"
     inkscape:showpageshadow="2"
     inkscape:pageopacity="0.0"
     inkscape:pagecheckerboard="0"
     inkscape:deskcolor="#d1d1d1"
     inkscape:zoom="0.60963936"
     inkscape:cx="462.56856"
     inkscape:cy="100.87931"
     inkscape:window-width="1687"
     inkscape:window-height="1417"
     inkscape:window-x="1679"
     inkscape:window-y="-8"
     inkscape:window-maximized="0"
     inkscape:current-layer="_àð_1" />
  <defs
     id="defs1">
    <style
       id="style1">&#10;      .cls-1 {&#10;        fill: none;&#10;        stroke: #1f1f1f;&#10;        stroke-miterlimit: 10;&#10;        stroke-width: 4.42px;&#10;      }&#10;    </style>
  </defs>
  <g
     id="g6"
     transform="translate(590.4478,29.82145)">
    <line
       class="cls-1"
       x1="120.14"
       y1="98.120003"
       x2="67.339996"
       y2="98.120003"
       id="line1" />
    <circle
       class="cls-1"
       cx="144.38"
       cy="98.239998"
       r="24.24"
       transform="rotate(-78.44,144.37724,98.237622)"
       id="circle1" />
    <circle
       class="cls-1"
       cx="144.38"
       cy="98.239998"
       r="9.4499998"
       transform="rotate(-76.77,144.38606,98.239125)"
       id="circle2" />
    <circle
       class="cls-1"
       cx="43.41"
       cy="98.239998"
       r="24.24"
       transform="rotate(-77.83,43.409221,98.235702)"
       id="circle3" />
    <circle
       class="cls-1"
       cx="43.41"
       cy="98.239998"
       r="9.4499998"
       transform="rotate(-74.13,43.405758,98.230294)"
       id="circle4" />
    <path
       class="cls-1"
       d="M 46.95,49.66 H 12.09 c -5.45,0 -9.88,4.42 -9.88,9.88 v 38.59 h 16.65"
       id="path4" />
    <path
       class="cls-1"
       d="M 141.89,49.66 121.94,14.82 C 119.49,10.54 114.93,7.9 110,7.9 H 51.15 c -4.98,0 -9.52,2.84 -11.7,7.32 L 22.7,49.67"
       id="path5" />
    <path
       class="cls-1"
       d="m 168.62,98.12 h 17.46 V 66.94 c 0,-9.47 -7.67,-17.14 -17.14,-17.14 H 80.4 C 70.66,49.8 62.77,41.91 62.77,32.17 V 7.75"
       id="path6" />
  </g>
  <g
     id="g11"
     transform="translate(-1990.448,20.270011)">
    <g
       id="g10">
      <g
         id="g7">
        <line
           class="cls-1"
           x1="2485.01"
           y1="109.2"
           x2="2436.3899"
           y2="109.2"
           id="line6" />
        <path
           class="cls-1"
           d="m 2390.27,109.2 h -14.67 l 0.15,-105.0587718 c 0.01,-7.48 6.08,-13.53 13.55,-13.53 h 121.74 c 6.97,0 13.2,4.36 15.58,10.92 L 2545.65,65.54 v 43.66 h -14.85"
           id="path7"
           sodipodi:nodetypes="cccsscccc" />
      </g>
      <circle
         class="cls-1"
         cx="2507.97"
         cy="110.4"
         r="21.629999"
         id="circle7" />
      <circle
         class="cls-1"
         cx="2507.97"
         cy="110.4"
         r="8.8299999"
         transform="rotate(-80.78,2508.0348,110.34871)"
         id="circle8" />
      <circle
         class="cls-1"
         cx="2413.3999"
         cy="110.4"
         r="8.8299999"
         transform="rotate(-45,2413.4018,110.40626)"
         id="circle9" />
      <circle
         class="cls-1"
         cx="2413.3999"
         cy="110.4"
         r="21.629999"
         id="circle10" />
    </g>
    <path
       class="cls-1"
       d="m 2545.66,65.54 h -32.8 c -11.35,0 -20.55,-9.2 -20.55,-20.55 v -16.3 h 42.898"
       id="path10"
       sodipodi:nodetypes="csscc" />
  </g>
  <g
     id="g20"
     transform="translate(-2089.52,-584.12)" />
  <g
     id="g21"
     transform="translate(-570.5892,-72.34202)">
    <g
       id="g16"
       transform="translate(-1638.3981,-511.77798)">
      <path
         class="cls-1"
         d="m 2544.29,711.5 h 12.39 v -42.01 l -27.86,-45.1 c -3.69,-5.97 -10.2,-9.6 -17.22,-9.6 h -30.72 v 97.66"
         id="path11" />
      <path
         class="cls-1"
         d="m 2554.77,670.12 h -29.99 c -10.72,0 -19.4,-8.69 -19.4,-19.4 v -13.11 h 31.64"
         id="path12" />
      <path
         class="cls-1"
         d="m 2493.69,711.87 h -54.18 c -0.12,-7.5 -2.51,-14.45 -6.52,-20.19 v -0.15 h 47.89"
         id="path13" />
      <circle
         class="cls-1"
         cx="2518.46"
         cy="712.45001"
         r="23.969999"
         id="circle13" />
      <circle
         class="cls-1"
         cx="2518.46"
         cy="712.45001"
         r="9.79"
         transform="rotate(-22.5,2518.4759,712.43629)"
         id="circle14" />
      <circle
         class="cls-1"
         cx="2403.23"
         cy="712.45001"
         r="9.79"
         transform="rotate(-45,2403.2268,712.45086)"
         id="circle15" />
      <circle
         class="cls-1"
         cx="2403.23"
         cy="712.45001"
         r="23.969999"
         id="circle16" />
    </g>
    <g
       id="g18"
       transform="translate(-1518.9308,-511.77798)">
      <circle
         class="cls-1"
         cx="2162.74"
         cy="712.45001"
         r="9.79"
         transform="rotate(-76.72,2162.6582,712.47615)"
         id="circle17" />
      <circle
         class="cls-1"
         cx="2162.74"
         cy="712.45001"
         r="23.969999"
         id="circle18" />
    </g>
    <path
       class="cls-1"
       d="M 828.4018,74.55202 H 572.7992 v 125.54 h 33.28 c 0,-19.93 16.16,-36.09 36.09,-36.09 h 2.2968 c 18.73,0 33.91,15.18 33.91,33.91 v 2.18 h 50.2658 c 0,-19.31 15.66,-34.97 34.97,-34.97 h 64.79 z"
       id="path20"
       sodipodi:nodetypes="ccccsssccscc" />
  </g>
</svg>
